<svg width="155" height="152" viewBox="0 0 155 152" fill="none" xmlns="http://www.w3.org/2000/svg">
<path d="M122.223 47.9484C129.284 49.8263 135.875 53.5822 141.289 58.9812L142.701 60.3897L126.46 74.0047L125.283 73.0657C119.398 67.6667 110.689 65.7887 102.921 68.8404L101.509 69.3099L91.3874 50.7653L93.0351 50.061C98.6843 47.4789 104.569 46.3052 110.689 46.3052C113.513 46.3052 116.103 46.5399 118.692 47.0094L122.223 47.9484ZM122.223 47.9484V21.4225M122.223 21.4225L101.744 1M122.223 21.4225H101.744V1M101.744 1H1V151H122.458V130.577M122.458 130.577C124.577 129.873 126.695 129.404 128.813 128.465L130.461 127.761L120.34 109.216L118.692 109.685C116.103 110.624 113.514 111.094 110.924 111.094C98.9197 111.094 89.0336 101.235 89.0336 89.2629C89.0336 82.4554 92.329 75.8826 97.9782 71.6573L99.1551 70.7183L89.0336 52.1737L87.3859 53.1127C75.1459 61.0939 67.849 74.4742 67.849 89.0282C67.849 112.737 87.1505 131.986 110.924 131.986C113.514 131.986 116.338 131.751 118.927 131.282L122.458 130.577ZM12.0635 118.841H66.6726M12.0635 105.695H52.0788M12.0635 131.752H81.9725M12.0635 56.6333H19.4781M66.9079 56.6333H59.4934M19.4781 38.3235V56.6333M19.4781 56.6333H32.895M32.895 25.8822V56.6333M32.895 56.6333H46.0765M46.0765 13.4409V56.6333M46.0765 56.6333H59.4934M59.4934 33.1592V56.6333M145.762 64.146L144.585 62.5028L128.343 76.1178L129.285 77.2915C131.639 80.8127 132.815 84.8033 132.815 89.0286C132.815 95.8361 129.52 102.409 123.871 106.634L122.694 107.808L132.815 126.353L134.463 125.414C146.703 117.432 154 104.052 154 89.4981C154 80.3432 151.175 71.423 145.762 64.146Z" stroke="white"/>
<path d="M145.761 64.146L144.584 62.5028L128.343 76.1178L129.284 77.2915C131.638 80.8127 132.815 84.8033 132.815 89.0286C132.815 95.8362 129.52 102.409 123.87 106.634L122.694 107.808L132.815 126.353L134.463 125.414C146.703 117.432 154 104.052 154 89.4981C154 80.3432 151.175 71.423 145.761 64.146Z" stroke="#FFDE01"/>
</svg>
