<svg width="248" height="60" viewBox="0 0 248 60" fill="none" xmlns="http://www.w3.org/2000/svg">
<path d="M78.9027 21.2995V34.4394H74.4898V0.875H86.832C90.4938 0.875 93.3592 1.81244 95.4274 3.68743C97.5122 5.56231 98.5537 8.04436 98.5537 11.1334C98.5537 14.3914 97.5348 16.9042 95.497 18.6716C93.474 20.4235 90.5703 21.2995 86.7861 21.2995H78.9027ZM78.9027 17.6802H86.832C89.1915 17.6802 90.9998 17.127 92.256 16.0204C93.5122 14.8986 94.1408 13.2849 94.1408 11.1795C94.1408 9.18156 93.5122 7.58326 92.256 6.38458C90.9998 5.1858 89.2759 4.5634 87.0849 4.51727H78.9027V17.6802ZM115.538 13.3233C114.895 13.2158 114.198 13.162 113.448 13.162C110.659 13.162 108.766 14.353 107.77 16.7351V34.4394H103.518V9.4966H107.655L107.725 12.3782C109.118 10.1498 111.095 9.0356 113.653 9.0356C114.481 9.0356 115.11 9.1431 115.538 9.35831V13.3233ZM117.883 21.7375C117.883 19.294 118.358 17.0963 119.308 15.1445C120.273 13.1927 121.606 11.6866 123.307 10.6262C125.023 9.56575 126.976 9.0356 129.168 9.0356C132.554 9.0356 135.289 10.2113 137.373 12.5626C139.473 14.9139 140.522 18.0414 140.522 21.945V22.2447C140.522 24.6728 140.054 26.8552 139.119 28.7915C138.201 30.7126 136.875 32.211 135.143 33.2868C133.427 34.3626 131.451 34.9005 129.214 34.9005C125.843 34.9005 123.108 33.7247 121.008 31.3734C118.924 29.0221 117.883 25.91 117.883 22.0371V21.7375ZM122.157 22.2447C122.157 25.011 122.794 27.2317 124.066 28.9068C125.352 30.5819 127.068 31.4195 129.214 31.4195C131.374 31.4195 133.091 30.5743 134.362 28.8838C135.633 27.1779 136.27 24.7958 136.27 21.7375C136.27 19.0019 135.619 16.7889 134.316 15.0983C133.029 13.3925 131.313 12.5396 129.168 12.5396C127.068 12.5396 125.376 13.3771 124.088 15.0523C122.802 16.7274 122.157 19.1249 122.157 22.2447ZM163.781 37.9204H142.728V34.4394H163.781V37.9204ZM172.193 30.8202H188.052V34.4394H167.757V0.875H172.193V30.8202ZM209.863 4.51727H199.107V34.4394H194.716V4.51727H183.983V0.875H209.863V4.51727ZM226.273 28.561L235.834 0.875H240.661L228.25 34.4394H224.342L211.955 0.875H216.758L226.273 28.561Z" fill="white"/>
<path d="M82.1816 57.0616H80.8879V52.5365H75.9674V57.0616H74.6804V47.272H75.9674V51.481H80.8879V47.272H82.1816V57.0616ZM88.7512 57.0616C88.6796 56.9182 88.6217 56.6626 88.5766 56.2951C88.0003 56.8957 87.3121 57.196 86.5121 57.196C85.797 57.196 85.2094 56.9943 84.7491 56.5909C84.2932 56.183 84.0653 55.6676 84.0653 55.0445C84.0653 54.2869 84.3514 53.6997 84.9234 53.2829C85.4999 52.8615 86.3087 52.6508 87.35 52.6508H88.557V52.0794C88.557 51.6445 88.4276 51.2994 88.1679 51.0439C87.9087 50.7839 87.5265 50.654 87.0215 50.654C86.5792 50.654 86.2082 50.766 85.9088 50.9901C85.6093 51.2142 85.4597 51.4854 85.4597 51.8037H84.2128C84.2128 51.4406 84.3402 51.091 84.5949 50.7548C84.854 50.4141 85.2026 50.1452 85.6406 49.948C86.0831 49.7508 86.568 49.6521 87.0953 49.6521C87.931 49.6521 88.5854 49.8628 89.0591 50.2842C89.5327 50.701 89.7789 51.277 89.7965 52.0121V55.3605C89.7965 56.0283 89.8818 56.5596 90.0515 56.954V57.0616H88.7512ZM86.6931 56.1135C87.0819 56.1135 87.4506 56.0127 87.7992 55.811C88.1478 55.6092 88.4001 55.347 88.557 55.0243V53.5316H87.5847C86.0652 53.5316 85.3054 53.9777 85.3054 54.8697C85.3054 55.2597 85.4351 55.5645 85.6942 55.7841C85.9534 56.0037 86.2864 56.1135 86.6931 56.1135ZM93.0954 49.7866V56.0463H95.7499V49.7866H96.9895V56.0463H99.6372V49.7866H100.885V57.0616H91.848V49.7866H93.0954ZM107.319 57.0616C107.249 56.9182 107.19 56.6626 107.146 56.2951C106.569 56.8957 105.881 57.196 105.081 57.196C104.366 57.196 103.778 56.9943 103.317 56.5909C102.862 56.183 102.634 55.6676 102.634 55.0445C102.634 54.2869 102.92 53.6997 103.492 53.2829C104.069 52.8615 104.878 52.6508 105.919 52.6508H107.125V52.0794C107.125 51.6445 106.996 51.2994 106.737 51.0439C106.477 50.7839 106.096 50.654 105.591 50.654C105.148 50.654 104.777 50.766 104.478 50.9901C104.178 51.2142 104.028 51.4854 104.028 51.8037H102.782C102.782 51.4406 102.909 51.091 103.164 50.7548C103.422 50.4141 103.772 50.1452 104.21 49.948C104.652 49.7508 105.137 49.6521 105.664 49.6521C106.5 49.6521 107.155 49.8628 107.628 50.2842C108.102 50.701 108.348 51.277 108.366 52.0121V55.3605C108.366 56.0283 108.45 56.5596 108.621 56.954V57.0616H107.319ZM105.262 56.1135C105.65 56.1135 106.019 56.0127 106.368 55.811C106.716 55.6092 106.969 55.347 107.125 55.0243V53.5316H106.153C104.634 53.5316 103.874 53.9777 103.874 54.8697C103.874 55.2597 104.004 55.5645 104.263 55.7841C104.523 56.0037 104.855 56.1135 105.262 56.1135ZM113.822 49.7866H115.069V56.0463H118.407V49.7866H119.648V56.0463H120.513L120.392 59.2198H119.279V57.0616H113.822V49.7866ZM124.863 57.196C123.879 57.196 123.08 56.8733 122.463 56.2278C121.847 55.5778 121.538 54.7105 121.538 53.6258V53.3972C121.538 52.6755 121.674 52.0323 121.947 51.4675C122.224 50.8982 122.608 50.4545 123.1 50.1362C123.596 49.8135 124.132 49.6521 124.709 49.6521C125.651 49.6521 126.385 49.9636 126.908 50.5867C127.43 51.2098 127.692 52.1018 127.692 53.2627V53.7805H122.778C122.796 54.4976 123.004 55.0781 123.402 55.5219C123.804 55.9611 124.314 56.1808 124.93 56.1808C125.368 56.1808 125.739 56.0911 126.043 55.9119C126.347 55.7326 126.612 55.4949 126.841 55.1991L127.598 55.7908C126.99 56.7276 126.079 57.196 124.863 57.196ZM124.709 50.6741C124.208 50.6741 123.788 50.8579 123.449 51.2254C123.109 51.5885 122.899 52.0995 122.818 52.7584H126.452V52.6643C126.416 52.0323 126.247 51.5437 125.943 51.1986C125.639 50.8489 125.228 50.6741 124.709 50.6741ZM135.079 49.7866V57.0616H133.833V50.8153H131.366L131.218 53.5384C131.138 54.789 130.927 55.6832 130.588 56.2211C130.253 56.759 129.719 57.0391 128.986 57.0616H128.489V55.9656L128.845 55.9387C129.247 55.8939 129.536 55.6608 129.709 55.2395C129.884 54.8181 129.996 54.0382 130.045 52.8997L130.179 49.7866H135.079ZM138.424 52.2945H140.308C141.131 52.3034 141.781 52.5186 142.258 52.94C142.737 53.3614 142.976 53.9328 142.976 54.6545C142.976 55.3806 142.73 55.9634 142.239 56.4027C141.747 56.8419 141.086 57.0616 140.254 57.0616H137.185V49.7866H138.424V52.2945ZM138.424 53.3097V56.0463H140.268C140.733 56.0463 141.092 55.9275 141.347 55.69C141.601 55.4479 141.729 55.1184 141.729 54.7016C141.729 54.2981 141.604 53.9687 141.354 53.7132C141.108 53.4532 140.762 53.3188 140.315 53.3097H138.424ZM150.51 53.4106H147.239V52.3954H150.51V53.4106ZM155.324 57.0616V47.272H158.515C159.574 47.272 160.37 47.4916 160.901 47.9309C161.438 48.3701 161.705 49.0201 161.705 49.8807C161.705 50.338 161.576 50.7436 161.317 51.0977C161.058 51.4473 160.705 51.7185 160.258 51.9113C160.785 52.0592 161.2 52.3416 161.504 52.7584C161.813 53.1708 161.967 53.6639 161.967 54.2376C161.967 55.1162 161.684 55.8065 161.116 56.3085C160.548 56.8106 159.746 57.0616 158.709 57.0616H155.324ZM156.611 52.4827V56.006H158.736C159.335 56.006 159.807 55.8513 160.15 55.542C160.499 55.2283 160.674 54.798 160.674 54.2511C160.674 53.0722 160.034 52.4827 158.757 52.4827H156.611ZM156.611 51.4473H158.556C159.118 51.4473 159.568 51.3061 159.903 51.0237C160.242 50.7413 160.412 50.3581 160.412 49.874C160.412 49.3361 160.256 48.9461 159.943 48.7041C159.63 48.4576 159.154 48.3343 158.515 48.3343H156.611V51.4473ZM168.161 57.0616C168.09 56.9182 168.031 56.6626 167.987 56.2951C167.411 56.8957 166.722 57.196 165.922 57.196C165.207 57.196 164.62 56.9943 164.159 56.5909C163.704 56.183 163.475 55.6676 163.475 55.0445C163.475 54.2869 163.762 53.6997 164.333 53.2829C164.91 52.8615 165.719 52.6508 166.76 52.6508H167.967V52.0794C167.967 51.6445 167.837 51.2994 167.578 51.0439C167.318 50.7839 166.937 50.654 166.432 50.654C165.99 50.654 165.618 50.766 165.319 50.9901C165.02 51.2142 164.87 51.4854 164.87 51.8037H163.622C163.622 51.4406 163.75 51.091 164.005 50.7548C164.264 50.4141 164.613 50.1452 165.051 49.948C165.494 49.7508 165.978 49.6521 166.506 49.6521C167.341 49.6521 167.996 49.8628 168.47 50.2842C168.943 50.701 169.189 51.277 169.207 52.0121V55.3605C169.207 56.0283 169.291 56.5596 169.462 56.954V57.0616H168.161ZM166.103 56.1135C166.492 56.1135 166.86 56.0127 167.21 55.811C167.558 55.6092 167.811 55.347 167.967 55.0243V53.5316H166.995C165.475 53.5316 164.716 53.9777 164.716 54.8697C164.716 55.2597 164.845 55.5645 165.104 55.7841C165.364 56.0037 165.696 56.1135 166.103 56.1135ZM172.505 49.7866V56.0463H175.16V49.7866H176.4V56.0463H179.048V49.7866H180.294V57.0616H171.259V49.7866H172.505ZM191.784 53.5048C191.784 54.6119 191.532 55.5039 191.027 56.1808C190.522 56.8576 189.839 57.196 188.976 57.196C188.095 57.196 187.403 56.9159 186.898 56.3556V59.8587H185.657V49.7866H186.79L186.851 50.5934C187.356 49.9659 188.057 49.6521 188.956 49.6521C189.827 49.6521 190.515 49.9816 191.02 50.6405C191.529 51.2994 191.784 52.2161 191.784 53.3905V53.5048ZM190.545 53.3635C190.545 52.5432 190.37 51.8955 190.021 51.4204C189.673 50.9453 189.194 50.7077 188.587 50.7077C187.836 50.7077 187.273 51.0417 186.898 51.7096V55.1857C187.268 55.8491 187.836 56.1808 188.6 56.1808C189.194 56.1808 189.666 55.9454 190.015 55.4748C190.368 54.9996 190.545 54.296 190.545 53.3635ZM196.377 57.196C195.393 57.196 194.594 56.8733 193.977 56.2278C193.36 55.5778 193.051 54.7105 193.051 53.6258V53.3972C193.051 52.6755 193.188 52.0323 193.46 51.4675C193.738 50.8982 194.122 50.4545 194.613 50.1362C195.11 49.8135 195.646 49.6521 196.223 49.6521C197.165 49.6521 197.898 49.9636 198.421 50.5867C198.944 51.2098 199.206 52.1018 199.206 53.2627V53.7805H194.292C194.309 54.4976 194.517 55.0781 194.915 55.5219C195.317 55.9611 195.826 56.1808 196.443 56.1808C196.882 56.1808 197.252 56.0911 197.556 55.9119C197.86 55.7326 198.126 55.4949 198.354 55.1991L199.112 55.7908C198.504 56.7276 197.592 57.196 196.377 57.196ZM196.223 50.6741C195.722 50.6741 195.302 50.8579 194.962 51.2254C194.622 51.5885 194.412 52.0995 194.332 52.7584H197.965V52.6643C197.93 52.0323 197.759 51.5437 197.455 51.1986C197.152 50.8489 196.74 50.6741 196.223 50.6741ZM204.635 51.7768C204.635 51.4361 204.506 51.1672 204.246 50.9699C203.987 50.7683 203.632 50.6674 203.18 50.6674C202.743 50.6674 202.376 50.7817 202.081 51.0103C201.791 51.2389 201.646 51.5078 201.646 51.8172H200.412C200.412 51.1851 200.676 50.6674 201.203 50.264C201.731 49.8605 202.39 49.6588 203.18 49.6588C204.029 49.6588 204.691 49.8426 205.165 50.2102C205.639 50.5732 205.875 51.0932 205.875 51.77C205.875 52.0973 205.777 52.3976 205.581 52.671C205.384 52.9444 205.104 53.1619 204.742 53.3232C205.587 53.6101 206.009 54.1749 206.009 55.0176C206.009 55.6854 205.752 56.2144 205.239 56.6044C204.725 56.9943 204.038 57.1893 203.18 57.1893C202.345 57.1893 201.654 56.9853 201.109 56.5774C200.569 56.165 200.298 55.6092 200.298 54.91H201.532C201.532 55.2641 201.688 55.5689 202 55.8244C202.318 56.0754 202.711 56.2009 203.18 56.2009C203.654 56.2009 204.036 56.0911 204.327 55.8714C204.618 55.6518 204.763 55.3672 204.763 55.0176C204.763 54.6097 204.639 54.3183 204.394 54.1435C204.153 53.9642 203.774 53.8746 203.261 53.8746H202.021V52.8257H203.368C204.213 52.8033 204.635 52.4536 204.635 51.7768ZM209.992 55.2395L211.68 49.7866H213.008L210.092 58.1844C209.641 59.3947 208.923 59.9998 207.94 59.9998L207.706 59.9796L207.243 59.8922V58.8836L207.578 58.9106C207.998 58.9106 208.325 58.8254 208.557 58.6551C208.793 58.4847 208.988 58.1732 209.14 57.7205L209.415 56.9809L206.827 49.7866H208.181L209.992 55.2395ZM219.785 49.7866V57.0616H218.538V50.8153H216.072L215.924 53.5384C215.843 54.789 215.633 55.6832 215.294 56.2211C214.959 56.759 214.425 57.0391 213.692 57.0616H213.195V55.9656L213.551 55.9387C213.953 55.8939 214.242 55.6608 214.415 55.2395C214.59 54.8181 214.702 54.0382 214.751 52.8997L214.885 49.7866H219.785ZM223.13 52.2945H225.014C225.837 52.3034 226.487 52.5186 226.964 52.94C227.443 53.3614 227.682 53.9328 227.682 54.6545C227.682 55.3806 227.436 55.9634 226.945 56.4027C226.453 56.8419 225.792 57.0616 224.96 57.0616H221.89V49.7866H223.13V52.2945ZM223.13 53.3097V56.0463H224.974C225.439 56.0463 225.798 55.9275 226.053 55.69C226.307 55.4479 226.435 55.1184 226.435 54.7016C226.435 54.2981 226.31 53.9687 226.059 53.7132C225.814 53.4532 225.468 53.3188 225.021 53.3097H223.13ZM234.151 50.7951H231.718V57.0616H230.477V50.7951H228.091V49.7866H234.151V50.7951ZM239.728 57.0616C239.657 56.9182 239.599 56.6626 239.554 56.2951C238.977 56.8957 238.289 57.196 237.49 57.196C236.775 57.196 236.186 56.9943 235.726 56.5909C235.27 56.183 235.043 55.6676 235.043 55.0445C235.043 54.2869 235.328 53.6997 235.901 53.2829C236.477 52.8615 237.286 52.6508 238.327 52.6508H239.534V52.0794C239.534 51.6445 239.404 51.2994 239.145 51.0439C238.886 50.7839 238.504 50.654 237.999 50.654C237.556 50.654 237.186 50.766 236.885 50.9901C236.586 51.2142 236.436 51.4854 236.436 51.8037H235.19C235.19 51.4406 235.317 51.091 235.572 50.7548C235.831 50.4141 236.179 50.1452 236.618 49.948C237.06 49.7508 237.545 49.6521 238.072 49.6521C238.909 49.6521 239.563 49.8628 240.036 50.2842C240.51 50.701 240.756 51.277 240.774 52.0121V55.3605C240.774 56.0283 240.859 56.5596 241.029 56.954V57.0616H239.728ZM237.67 56.1135C238.059 56.1135 238.428 56.0127 238.776 55.811C239.125 55.6092 239.377 55.347 239.534 55.0243V53.5316H238.561C237.042 53.5316 236.282 53.9777 236.282 54.8697C236.282 55.2597 236.412 55.5645 236.672 55.7841C236.931 56.0037 237.264 56.1135 237.67 56.1135ZM248 50.7951H245.567V57.0616H244.327V50.7951H241.941V49.7866H248V50.7951Z" fill="#DD3934"/>
<ellipse rx="3.64588" ry="4.87788" transform="matrix(0.937435 -0.348159 0.346331 0.938112 28.4213 27.3257)" fill="#DD3934"/>
<path fill-rule="evenodd" clip-rule="evenodd" d="M36.4706 55.089C47.4736 51.33 52.2698 36.1403 47.1832 21.162C42.0965 6.18365 29.0533 -2.91138 18.0503 0.847676C7.04727 4.60673 2.2511 19.7964 7.33774 34.7747C12.4244 49.7531 25.4676 58.8481 36.4706 55.089ZM35.78 53.0553C45.9579 49.5781 50.3945 35.5275 45.6893 21.6724C40.9841 7.81722 28.9189 -0.595787 18.741 2.88138C8.56307 6.35855 4.12656 20.4092 8.83176 34.2643C13.537 48.1194 25.6021 56.5325 35.78 53.0553Z" fill="white"/>
<path d="M1.89328 36.949C7.10851 52.306 21.493 61.2853 34.0221 57.0049C37.4059 55.8489 40.3083 53.8439 42.6397 51.2302L42.6788 51.1864C40.9217 52.9398 38.84 54.2794 36.4705 55.0889C25.4675 58.848 12.4243 49.7529 7.33766 34.7746C2.25102 19.7963 7.04719 4.60659 18.0502 0.847542C18.5197 0.687152 18.9929 0.550164 19.469 0.436035C18.0115 0.589859 16.5617 0.905238 15.136 1.39231C2.60704 5.6727 -3.32195 21.592 1.89328 36.949Z" fill="#0E041E"/>
<path fill-rule="evenodd" clip-rule="evenodd" d="M35.6798 46.9708C43.6415 44.0219 46.856 32.832 42.8596 21.9775C38.8632 11.1231 29.1692 4.71437 21.2076 7.66331C13.2459 10.6122 10.0314 21.8021 14.0278 32.6566C18.0242 43.511 27.7182 49.9197 35.6798 46.9708ZM34.1937 43.0056C40.5351 40.6558 43.0918 31.7299 39.9043 23.0689C36.7167 14.4079 28.992 9.29165 22.6506 11.6414C16.3092 13.9911 13.7525 22.9171 16.94 31.5781C20.1275 40.2391 27.8523 45.3553 34.1937 43.0056Z" fill="#DD3934"/>
<path fill-rule="evenodd" clip-rule="evenodd" d="M32.852 39.2704C37.723 37.4662 39.7009 30.6509 37.2698 24.0479C34.8387 17.4449 28.9192 13.5547 24.0482 15.3589C19.1773 17.163 17.1994 23.9784 19.6305 30.5814C22.0616 37.1844 27.981 41.0746 32.852 39.2704ZM31.4886 35.5753C34.8539 34.3283 36.2208 29.6188 34.5417 25.0564C32.8626 20.4939 28.7733 17.8062 25.4079 19.0532C22.0426 20.3002 20.6757 25.0097 22.3548 29.5721C24.0339 34.1346 28.1232 36.8223 31.4886 35.5753Z" fill="#DD3934"/>
<path d="M66.967 2.87995L65.2383 12.0445L52.8381 17.2764L54.4528 9.36219L66.967 2.87995Z" fill="#DD3934"/>
<path d="M71.8525 17.0927L64.7829 11.6403L52.6212 16.7715L59.3907 21.1482L71.8525 17.0927Z" fill="#DD3934"/>
<rect width="3.25243" height="43.0839" rx="1.62622" transform="matrix(-0.38676 -0.922181 0.921351 -0.388732 27.834 29.4604)" fill="white"/>
</svg>
