<svg width="155" height="153" viewBox="0 0 155 153" fill="none" xmlns="http://www.w3.org/2000/svg">
<path d="M73.6732 74.213C72.5164 73.7229 71.2442 73.4519 69.9086 73.4519C64.5752 73.4519 60.2516 77.7745 60.2516 83.1068C60.2516 88.439 64.5752 92.7616 69.9086 92.7616C75.2421 92.7616 79.5657 88.439 79.5657 83.1068C79.5657 82.8868 79.5583 82.6685 79.5438 82.4522M114.265 83.1068C114.265 107.599 94.4063 127.454 69.9086 127.454M114.265 83.1068H128.342M114.265 83.1068C114.265 77.1398 113.087 71.448 110.949 66.2516M69.9086 127.454C45.411 127.454 25.5518 107.599 25.5518 83.1068M69.9086 127.454V141.527M25.5518 83.1068C25.5518 58.6146 45.411 38.7597 69.9086 38.7597M25.5518 83.1068H11.4754M69.9086 38.7597V24.6865M69.9086 38.7597C76.9679 38.7597 83.6421 40.4084 89.5669 43.3417M128.342 83.1068C128.342 115.371 102.18 141.527 69.9086 141.527M128.342 83.1068C128.342 73.1579 125.854 63.7899 121.467 55.5905M69.9086 141.527C37.6369 141.527 11.4754 115.371 11.4754 83.1068M11.4754 83.1068C11.4754 50.8421 37.6369 24.6865 69.9086 24.6865M69.9086 24.6865C80.7212 24.6865 90.8479 27.6226 99.5344 32.741M6.2184 109.453C2.85574 101.337 1 92.4385 1 83.1068C1 45.058 31.8514 14.2134 69.9086 14.2134C76.0786 14.2134 82.0592 15.0241 87.7496 16.5448M56.3233 150.662C60.7154 151.54 65.2582 152 69.9086 152C107.966 152 138.817 121.156 138.817 83.1068C138.817 76.154 137.787 69.4418 135.871 63.1144M71.7091 64.3729C71.1165 64.3167 70.5159 64.2879 69.9086 64.2879C59.513 64.2879 51.0856 72.7134 51.0856 83.1068C51.0856 93.5001 59.513 101.926 69.9086 101.926C80.3043 101.926 88.7316 93.5001 88.7316 83.1068C88.7316 82.6111 88.7125 82.12 88.6749 81.634M76.9468 54.3284C74.6909 53.7788 72.3338 53.4875 69.9086 53.4875C53.5468 53.4875 40.2828 66.7485 40.2828 83.1068C40.2828 99.465 53.5468 112.726 69.9086 112.726C86.2705 112.726 99.5344 99.465 99.5344 83.1068C99.5344 81.9444 99.4675 80.7977 99.3372 79.6703" stroke="white"/>
<path d="M79.2445 60.9706L76.4967 79.5167L94.7187 75.8944L125.522 44.1633L108.313 47.6407L111.205 29.2395L79.2445 60.9706Z" stroke="#FFDE01"/>
<path d="M116.411 18.9523L123.498 11.8526L118.147 38.0779L143.021 32.2822L136.224 39.0921L111.639 44.1633L116.411 18.9523Z" stroke="#FFDE01"/>
<path d="M126.39 9.09966L133.476 2L128.126 28.2253L153 22.4296L146.203 29.2395L121.618 34.3107L126.39 9.09966Z" stroke="#FFDE01"/>
</svg>
