<svg width="148" height="35" viewBox="0 0 148 35" fill="none" xmlns="http://www.w3.org/2000/svg">
<path d="M47.0871 12.4248V20.0898H44.4536V0.510567H51.8191C54.0044 0.510567 55.7144 1.05741 56.9486 2.15115C58.1928 3.24483 58.8143 4.69269 58.8143 6.49461C58.8143 8.39516 58.2063 9.86092 56.9902 10.8919C55.7829 11.9139 54.05 12.4248 51.7917 12.4248H47.0871ZM47.0871 10.3136H51.8191C53.2272 10.3136 54.3064 9.99088 55.056 9.34541C55.8057 8.69099 56.1808 7.74969 56.1808 6.52152C56.1808 5.35606 55.8057 4.42372 55.056 3.72449C54.3064 3.0252 53.2776 2.66213 51.97 2.63522H47.0871V10.3136ZM68.9502 7.77207C68.5663 7.70936 68.1503 7.67797 67.7026 7.67797C66.0382 7.67797 64.9087 8.37273 64.3142 9.76229V20.0898H61.7767V5.53983H64.2457L64.2872 7.22075C65.1188 5.92086 66.2986 5.27092 67.8255 5.27092C68.3194 5.27092 68.6945 5.33363 68.9502 5.45916V7.77207ZM70.3495 12.6803C70.3495 11.255 70.6327 9.97297 71.1998 8.83442C71.7757 7.69587 72.5716 6.81735 73.5863 6.19879C74.6105 5.58017 75.7762 5.27092 77.0842 5.27092C79.1049 5.27092 80.7371 5.95672 81.9807 7.32833C83.2336 8.69994 83.8598 10.5243 83.8598 12.8014V12.9762C83.8598 14.3926 83.5807 15.6657 83.0229 16.7952C82.4746 17.9158 81.6834 18.7899 80.6499 19.4174C79.6258 20.045 78.4466 20.3588 77.1117 20.3588C75.0997 20.3588 73.4675 19.6729 72.2146 18.3013C70.971 16.9297 70.3495 15.1143 70.3495 12.8552V12.6803ZM72.9005 12.9762C72.9005 14.5899 73.2803 15.8853 74.0393 16.8625C74.8071 17.8396 75.8312 18.3282 77.1117 18.3282C78.4009 18.3282 79.425 17.8351 80.1841 16.849C80.9425 15.8539 81.3223 14.4644 81.3223 12.6803C81.3223 11.0846 80.9337 9.79368 80.1565 8.80751C79.3882 7.81246 78.364 7.3149 77.0842 7.3149C75.8312 7.3149 74.8211 7.80345 74.0527 8.78066C73.2849 9.75782 72.9005 11.1563 72.9005 12.9762ZM97.7406 22.1204H85.1765V20.0898H97.7406V22.1204ZM102.761 17.9786H112.225V20.0898H100.113V0.510567H102.761V17.9786ZM125.241 2.63522H118.822V20.0898H116.202V2.63522H109.797V0.510567H125.241V2.63522ZM135.034 16.6607L140.74 0.510567H143.62L136.214 20.0898H133.882L126.489 0.510567H129.356L135.034 16.6607Z" fill="white"/>
<path d="M49.0439 33.286H48.2719V30.6464H45.3355V33.286H44.5674V27.5754H45.3355V30.0307H48.2719V27.5754H49.0439V33.286ZM52.9645 33.286C52.9218 33.2024 52.8872 33.0533 52.8603 32.8389C52.5164 33.1893 52.1057 33.3644 51.6283 33.3644C51.2015 33.3644 50.8508 33.2468 50.5761 33.0115C50.3041 32.7735 50.1681 32.4728 50.1681 32.1094C50.1681 31.6675 50.3388 31.3249 50.6801 31.0818C51.0242 30.836 51.5069 30.7131 52.1283 30.7131H52.8486V30.3797C52.8486 30.1261 52.7714 29.9248 52.6164 29.7757C52.4617 29.624 52.2337 29.5483 51.9323 29.5483C51.6683 29.5483 51.4469 29.6136 51.2682 29.7443C51.0895 29.8751 51.0002 30.0332 51.0002 30.2189H50.2561C50.2561 30.0071 50.3321 29.8032 50.4841 29.6071C50.6388 29.4083 50.8468 29.2515 51.1082 29.1364C51.3722 29.0214 51.6616 28.9638 51.9763 28.9638C52.475 28.9638 52.8656 29.0867 53.1482 29.3325C53.4309 29.5757 53.5778 29.9117 53.5883 30.3405V32.2937C53.5883 32.6833 53.6392 32.9932 53.7405 33.2232V33.286H52.9645ZM51.7363 32.733C51.9683 32.733 52.1883 32.6742 52.3964 32.5565C52.6044 32.4388 52.755 32.2859 52.8486 32.0976V31.2269H52.2684C51.3616 31.2269 50.9081 31.4871 50.9081 32.0074C50.9081 32.2349 50.9855 32.4127 51.1402 32.5408C51.2949 32.6689 51.4936 32.733 51.7363 32.733ZM55.557 29.0423V32.6938H57.1412V29.0423H57.8809V32.6938H59.461V29.0423H60.2054V33.286H54.8126V29.0423H55.557ZM64.0455 33.286C64.0034 33.2024 63.9683 33.0533 63.942 32.8389C63.5979 33.1893 63.187 33.3644 62.7095 33.3644C62.2829 33.3644 61.9323 33.2468 61.6573 33.0115C61.3857 32.7735 61.2494 32.4728 61.2494 32.1094C61.2494 31.6675 61.4203 31.3249 61.7614 31.0818C62.1056 30.836 62.5884 30.7131 63.2099 30.7131H63.9297V30.3797C63.9297 30.1261 63.8524 29.9248 63.6979 29.7757C63.5428 29.624 63.3152 29.5483 63.0138 29.5483C62.7499 29.5483 62.5281 29.6136 62.3496 29.7443C62.1711 29.8751 62.0816 30.0332 62.0816 30.2189H61.3377C61.3377 30.0071 61.4132 29.8032 61.5654 29.6071C61.7199 29.4083 61.9282 29.2515 62.1898 29.1364C62.4538 29.0214 62.7429 28.9638 63.0577 28.9638C63.5563 28.9638 63.9472 29.0867 64.2299 29.3325C64.5125 29.5757 64.6594 29.9117 64.67 30.3405V32.2937C64.67 32.6833 64.7203 32.9932 64.8221 33.2232V33.286H64.0455ZM62.8178 32.733C63.0495 32.733 63.2696 32.6742 63.4779 32.5565C63.6856 32.4388 63.8366 32.2859 63.9297 32.0976V31.2269H63.3497C62.4432 31.2269 61.9897 31.4871 61.9897 32.0074C61.9897 32.2349 62.0669 32.4127 62.2214 32.5408C62.3765 32.6689 62.5749 32.733 62.8178 32.733ZM67.9261 29.0423H68.6705V32.6938H70.6626V29.0423H71.4029V32.6938H71.919L71.8471 34.545H71.1828V33.286H67.9261V29.0423ZM74.5151 33.3644C73.9281 33.3644 73.4511 33.1762 73.083 32.7996C72.7149 32.4205 72.5306 31.9146 72.5306 31.2818V31.1484C72.5306 30.7275 72.6119 30.3523 72.7746 30.0228C72.9402 29.6907 73.1697 29.4319 73.4628 29.2462C73.759 29.058 74.0791 28.9638 74.4232 28.9638C74.9856 28.9638 75.4233 29.1455 75.7352 29.509C76.0472 29.8725 76.2034 30.3928 76.2034 31.07V31.372H73.2709C73.2814 31.7904 73.4055 32.129 73.6431 32.3879C73.883 32.6441 74.1873 32.7722 74.5549 32.7722C74.8165 32.7722 75.0377 32.7199 75.2191 32.6154C75.4005 32.5108 75.5591 32.3721 75.6954 32.1996L76.1472 32.5447C75.7844 33.0912 75.2407 33.3644 74.5151 33.3644ZM74.4232 29.56C74.1241 29.56 73.8737 29.6672 73.6712 29.8816C73.4681 30.0934 73.3429 30.3915 73.2949 30.7759H75.4631V30.7209C75.442 30.3523 75.3408 30.0673 75.1594 29.8659C74.978 29.662 74.7328 29.56 74.4232 29.56ZM80.6118 29.0423V33.286H79.868V29.6424H78.3956L78.3078 31.2308C78.2599 31.9604 78.134 32.482 77.9316 32.7957C77.7314 33.1095 77.4131 33.2729 76.9753 33.286H76.6792V32.6467L76.8916 32.631C77.1316 32.6049 77.3036 32.4689 77.4072 32.2231C77.5114 31.9773 77.5781 31.5224 77.6074 30.8582L77.6875 29.0423H80.6118ZM82.608 30.5052H83.7322C84.2232 30.5104 84.6112 30.636 84.8962 30.8818C85.1818 31.1276 85.3246 31.4609 85.3246 31.8819C85.3246 32.3055 85.1777 32.6454 84.8845 32.9017C84.5913 33.1579 84.1963 33.286 83.7 33.286H81.8683V29.0423H82.608V30.5052ZM82.608 31.0974V32.6938H83.7082C83.9856 32.6938 84.2004 32.6245 84.3526 32.4859C84.5041 32.3447 84.5802 32.1525 84.5802 31.9094C84.5802 31.674 84.5059 31.4819 84.3566 31.3328C84.2098 31.1811 84.0032 31.1027 83.7363 31.0974H82.608ZM89.8208 31.1563H87.8685V30.5641H89.8208V31.1563ZM92.6936 33.286V27.5754H94.5979C95.23 27.5754 95.7046 27.7035 96.0218 27.9598C96.3419 28.216 96.5016 28.5951 96.5016 29.0972C96.5016 29.3639 96.4244 29.6005 96.2699 29.8071C96.1154 30.011 95.9047 30.1692 95.6379 30.2817C95.9527 30.368 96.2003 30.5327 96.3817 30.7759C96.566 31.0164 96.6579 31.304 96.6579 31.6387C96.6579 32.1512 96.4888 32.5539 96.1499 32.8467C95.8111 33.1396 95.3324 33.286 94.7138 33.286H92.6936ZM93.4614 30.615V32.6703H94.7296C95.0872 32.6703 95.3687 32.58 95.5735 32.3996C95.7818 32.2166 95.886 31.9656 95.886 31.6466C95.886 30.9589 95.5044 30.615 94.7419 30.615H93.4614ZM93.4614 30.011H94.6219C94.9578 30.011 95.2259 29.9287 95.426 29.7639C95.6285 29.5992 95.7297 29.3757 95.7297 29.0933C95.7297 28.7795 95.6367 28.552 95.45 28.4108C95.2633 28.267 94.9789 28.1951 94.5979 28.1951H93.4614V30.011ZM100.354 33.286C100.312 33.2024 100.277 33.0533 100.251 32.8389C99.9064 33.1893 99.4956 33.3644 99.0181 33.3644C98.5914 33.3644 98.2409 33.2468 97.9658 33.0115C97.6943 32.7735 97.558 32.4728 97.558 32.1094C97.558 31.6675 97.7288 31.3249 98.07 31.0818C98.4141 30.836 98.8969 30.7131 99.5184 30.7131H100.238V30.3797C100.238 30.1261 100.161 29.9248 100.006 29.7757C99.8514 29.624 99.6238 29.5483 99.3224 29.5483C99.0584 29.5483 98.8367 29.6136 98.6582 29.7443C98.4797 29.8751 98.3901 30.0332 98.3901 30.2189H97.6457C97.6457 30.0071 97.7218 29.8032 97.874 29.6071C98.0285 29.4083 98.2368 29.2515 98.4984 29.1364C98.7623 29.0214 99.0514 28.9638 99.3663 28.9638C99.8649 28.9638 100.256 29.0867 100.538 29.3325C100.821 29.5757 100.968 29.9117 100.979 30.3405V32.2937C100.979 32.6833 101.029 32.9932 101.131 33.2232V33.286H100.354ZM99.1263 32.733C99.3581 32.733 99.5781 32.6742 99.7865 32.5565C99.9942 32.4388 100.145 32.2859 100.238 32.0976V31.2269H99.6583C98.7512 31.2269 98.2982 31.4871 98.2982 32.0074C98.2982 32.2349 98.3755 32.4127 98.53 32.5408C98.6851 32.6689 98.8835 32.733 99.1263 32.733ZM102.947 29.0423V32.6938H104.531V29.0423H105.271V32.6938H106.851V29.0423H107.595V33.286H102.203V29.0423H102.947ZM114.452 31.2112C114.452 31.857 114.302 32.3774 114 32.7722C113.699 33.167 113.291 33.3644 112.776 33.3644C112.25 33.3644 111.837 33.201 111.536 32.8742V34.9176H110.796V29.0423H111.471L111.508 29.5129C111.809 29.1469 112.228 28.9638 112.764 28.9638C113.284 28.9638 113.695 29.156 113.996 29.5404C114.3 29.9248 114.452 30.4595 114.452 31.1445V31.2112ZM113.712 31.1288C113.712 30.6503 113.608 30.2725 113.4 29.9953C113.192 29.7182 112.906 29.5796 112.544 29.5796C112.096 29.5796 111.76 29.7744 111.536 30.164V32.1918C111.757 32.5787 112.096 32.7722 112.552 32.7722C112.906 32.7722 113.188 32.6349 113.396 32.3604C113.607 32.0832 113.712 31.6727 113.712 31.1288ZM117.193 33.3644C116.606 33.3644 116.129 33.1762 115.761 32.7996C115.392 32.4205 115.208 31.9146 115.208 31.2818V31.1484C115.208 30.7275 115.289 30.3523 115.452 30.0228C115.618 29.6907 115.847 29.4319 116.14 29.2462C116.436 29.058 116.757 28.9638 117.101 28.9638C117.663 28.9638 118.101 29.1455 118.413 29.509C118.725 29.8725 118.881 30.3928 118.881 31.07V31.372H115.948C115.959 31.7904 116.083 32.129 116.321 32.3879C116.561 32.6441 116.864 32.7722 117.232 32.7722C117.494 32.7722 117.715 32.7199 117.897 32.6154C118.078 32.5108 118.237 32.3721 118.372 32.1996L118.825 32.5447C118.462 33.0912 117.918 33.3644 117.193 33.3644ZM117.101 29.56C116.802 29.56 116.551 29.6672 116.348 29.8816C116.146 30.0934 116.02 30.3915 115.972 30.7759H118.141V30.7209C118.12 30.3523 118.018 30.0673 117.836 29.8659C117.655 29.662 117.41 29.56 117.101 29.56ZM122.121 30.2032C122.121 30.0045 122.044 29.8476 121.889 29.7325C121.734 29.6149 121.523 29.5561 121.253 29.5561C120.992 29.5561 120.773 29.6227 120.597 29.7561C120.424 29.8895 120.337 30.0463 120.337 30.2268H119.601C119.601 29.8581 119.758 29.5561 120.073 29.3208C120.388 29.0854 120.781 28.9677 121.253 28.9677C121.76 28.9677 122.155 29.075 122.437 29.2894C122.72 29.5012 122.861 29.8045 122.861 30.1993C122.861 30.3902 122.802 30.5653 122.685 30.7248C122.568 30.8843 122.401 31.0112 122.185 31.1053C122.689 31.2727 122.941 31.6021 122.941 32.0937C122.941 32.4833 122.788 32.7918 122.481 33.0193C122.174 33.2468 121.765 33.3605 121.253 33.3605C120.754 33.3605 120.342 33.2415 120.017 33.0036C119.694 32.763 119.533 32.4388 119.533 32.0309H120.269C120.269 32.2375 120.362 32.4153 120.549 32.5643C120.738 32.7108 120.973 32.784 121.253 32.784C121.535 32.784 121.764 32.7199 121.937 32.5918C122.111 32.4637 122.197 32.2976 122.197 32.0937C122.197 31.8558 122.124 31.6858 121.977 31.5838C121.833 31.4792 121.607 31.4269 121.301 31.4269H120.561V30.8151H121.365C121.869 30.802 122.121 30.598 122.121 30.2032ZM125.318 32.2231L126.325 29.0423H127.118L125.377 33.941C125.108 34.647 124.68 35 124.093 35L123.954 34.9882L123.677 34.9372V34.3489L123.877 34.3646C124.128 34.3646 124.323 34.3149 124.462 34.2155C124.603 34.1162 124.719 33.9345 124.81 33.6704L124.974 33.239L123.429 29.0423H124.237L125.318 32.2231ZM131.162 29.0423V33.286H130.418V29.6424H128.946L128.858 31.2308C128.81 31.9604 128.684 32.482 128.482 32.7957C128.282 33.1095 127.963 33.2729 127.526 33.286H127.23V32.6467L127.442 32.631C127.682 32.6049 127.854 32.4689 127.958 32.2231C128.062 31.9773 128.128 31.5224 128.158 30.8582L128.238 29.0423H131.162ZM133.158 30.5052H134.283C134.774 30.5104 135.162 30.636 135.447 30.8818C135.732 31.1276 135.875 31.4609 135.875 31.8819C135.875 32.3055 135.728 32.6454 135.435 32.9017C135.141 33.1579 134.747 33.286 134.25 33.286H132.418V29.0423H133.158V30.5052ZM133.158 31.0974V32.6938H134.259C134.536 32.6938 134.751 32.6245 134.903 32.4859C135.055 32.3447 135.131 32.1525 135.131 31.9094C135.131 31.674 135.056 31.4819 134.906 31.3328C134.76 31.1811 134.554 31.1027 134.287 31.0974H133.158ZM139.735 29.6306H138.283V33.286H137.543V29.6306H136.119V29.0423H139.735V29.6306ZM143.064 33.286C143.021 33.2024 142.987 33.0533 142.96 32.8389C142.616 33.1893 142.205 33.3644 141.728 33.3644C141.301 33.3644 140.95 33.2468 140.676 33.0115C140.403 32.7735 140.268 32.4728 140.268 32.1094C140.268 31.6675 140.438 31.3249 140.78 31.0818C141.123 30.836 141.606 30.7131 142.228 30.7131H142.948V30.3797C142.948 30.1261 142.87 29.9248 142.716 29.7757C142.561 29.624 142.333 29.5483 142.031 29.5483C141.768 29.5483 141.546 29.6136 141.367 29.7443C141.189 29.8751 141.099 30.0332 141.099 30.2189H140.355C140.355 30.0071 140.431 29.8032 140.584 29.6071C140.738 29.4083 140.946 29.2515 141.207 29.1364C141.471 29.0214 141.761 28.9638 142.075 28.9638C142.575 28.9638 142.965 29.0867 143.248 29.3325C143.53 29.5757 143.677 29.9117 143.688 30.3405V32.2937C143.688 32.6833 143.739 32.9932 143.84 33.2232V33.286H143.064ZM141.835 32.733C142.068 32.733 142.288 32.6742 142.496 32.5565C142.704 32.4388 142.854 32.2859 142.948 32.0976V31.2269H142.367C141.461 31.2269 141.007 31.4871 141.007 32.0074C141.007 32.2349 141.085 32.4127 141.24 32.5408C141.394 32.6689 141.593 32.733 141.835 32.733ZM148 29.6306H146.548V33.286H145.808V29.6306H144.384V29.0423H148V29.6306Z" fill="#DD3934"/>
<ellipse rx="2.16988" ry="2.85337" transform="matrix(0.939976 -0.34124 0.353325 0.935501 16.9609 15.9401)" fill="#DD3934"/>
<path fill-rule="evenodd" clip-rule="evenodd" d="M21.7649 32.1353C28.3312 29.9425 31.1935 21.0819 28.1579 12.3445C25.1223 3.60713 17.3384 -1.6983 10.7721 0.494478C4.20581 2.68726 1.34358 11.5479 4.37915 20.2853C7.41473 29.0226 15.1986 34.3281 21.7649 32.1353ZM21.3528 30.949C27.4267 28.9206 30.0743 20.7244 27.2664 12.6423C24.4584 4.56012 17.2582 -0.347473 11.1843 1.68088C5.11041 3.70922 2.46281 11.9054 5.27075 19.9876C8.07869 28.0697 15.2789 32.9773 21.3528 30.949Z" fill="#DD3934"/>
<path d="M1.12986 21.5536C4.24217 30.5119 12.8265 35.7498 20.3035 33.2529C22.3229 32.5786 24.0549 31.409 25.4463 29.8844L25.4696 29.8588C24.421 30.8816 23.1787 31.6631 21.7647 32.1353C15.1984 34.3281 7.4145 29.0226 4.37893 20.2852C1.34335 11.5479 4.20558 2.68725 10.7719 0.494465C11.0521 0.400904 11.3344 0.320994 11.6186 0.254419C10.7488 0.34415 9.88362 0.528121 9.0328 0.812248C1.55582 3.30914 -1.98245 12.5954 1.12986 21.5536Z" fill="black"/>
<path fill-rule="evenodd" clip-rule="evenodd" d="M21.2926 27.3997C26.044 25.6794 27.9623 19.152 25.5773 12.8203C23.1924 6.48848 17.4073 2.75008 12.656 4.47029C7.90464 6.1905 5.98632 12.7179 8.37127 19.0497C10.7562 25.3815 16.5413 29.1199 21.2926 27.3997ZM20.4057 25.0867C24.1901 23.716 25.7158 18.5092 23.8136 13.4569C21.9114 8.40469 17.3015 5.4202 13.5171 6.79089C9.73271 8.16157 8.20692 13.3684 10.1092 18.4206C12.0114 23.4729 16.6213 26.4574 20.4057 25.0867Z" fill="#DD3934"/>
<path fill-rule="evenodd" clip-rule="evenodd" d="M19.6054 22.9078C22.5123 21.8554 23.6927 17.8797 22.2419 14.028C20.791 10.1762 17.2584 7.90695 14.3516 8.95938C11.4447 10.0118 10.2643 13.9874 11.7152 17.8392C13.166 21.6909 16.6986 23.9602 19.6054 22.9078ZM18.7918 20.7522C20.8001 20.0248 21.6159 17.2776 20.6138 14.6162C19.6118 11.9548 17.1713 10.387 15.163 11.1144C13.1547 11.8418 12.3389 14.589 13.341 17.2504C14.343 19.9118 16.7834 21.4797 18.7918 20.7522Z" fill="#DD3934"/>
<path d="M39.964 1.68002L38.9323 7.02604L31.5322 10.0779L32.4959 5.46133L39.964 1.68002Z" fill="#DD3934"/>
<path d="M42.8796 9.97072L38.6606 6.79014L31.4028 9.78334L35.4427 12.3364L42.8796 9.97072Z" fill="#DD3934"/>
<rect width="1.90386" height="25.6247" rx="0.951928" transform="matrix(-0.394299 -0.918982 0.924467 -0.381262 16.6108 17.1853)" fill="black"/>
</svg>
