<svg width="249" height="60" viewBox="0 0 249 60" fill="none" xmlns="http://www.w3.org/2000/svg">
<path d="M79.2208 21.2997V34.4396H74.7902V0.875191H87.1822C90.8587 0.875191 93.7357 1.81263 95.8122 3.68762C97.9054 5.5625 98.9511 8.04455 98.9511 11.1336C98.9511 14.3916 97.9281 16.9044 95.8821 18.6717C93.8509 20.4237 90.9355 21.2997 87.136 21.2997H79.2208ZM79.2208 17.6804H87.1822C89.5512 17.6804 91.3668 17.1271 92.628 16.0206C93.8893 14.8988 94.5204 13.2851 94.5204 11.1797C94.5204 9.18175 93.8893 7.58345 92.628 6.38477C91.3668 5.18599 89.6359 4.56359 87.436 4.51746H79.2208V17.6804ZM116.004 13.3235C115.358 13.216 114.658 13.1622 113.905 13.1622C111.105 13.1622 109.205 14.3532 108.204 16.7353V34.4396H103.935V9.49679H108.089L108.159 12.3784C109.558 10.15 111.543 9.03579 114.112 9.03579C114.943 9.03579 115.574 9.1433 116.004 9.3585V13.3235ZM118.358 21.7376C118.358 19.2942 118.835 17.0965 119.789 15.1447C120.758 13.1929 122.097 11.6868 123.804 10.6264C125.527 9.56594 127.488 9.03579 129.689 9.03579C133.089 9.03579 135.835 10.2115 137.927 12.5628C140.035 14.9141 141.088 18.0416 141.088 21.9452V22.2449C141.088 24.673 140.619 26.8554 139.68 28.7917C138.758 30.7127 137.427 32.2112 135.688 33.2869C133.965 34.3628 131.981 34.9007 129.735 34.9007C126.35 34.9007 123.604 33.7249 121.496 31.3736C119.404 29.0223 118.358 25.9102 118.358 22.0373V21.7376ZM122.65 22.2449C122.65 25.0112 123.289 27.2319 124.566 28.907C125.858 30.5821 127.581 31.4197 129.735 31.4197C131.904 31.4197 133.627 30.5745 134.904 28.884C136.18 27.1781 136.819 24.796 136.819 21.7376C136.819 19.0021 136.165 16.7891 134.858 15.0985C133.565 13.3927 131.842 12.5398 129.689 12.5398C127.581 12.5398 125.881 13.3773 124.589 15.0525C123.297 16.7276 122.65 19.1251 122.65 22.2449ZM164.442 37.9206H143.304V34.4396H164.442V37.9206ZM172.888 30.8203H188.81V34.4396H168.433V0.875191H172.888V30.8203ZM210.71 4.51746H199.91V34.4396H195.502V4.51746H184.725V0.875191H210.71V4.51746ZM227.186 28.5612L236.785 0.875191H241.631L229.171 34.4396H225.247L212.81 0.875191H217.632L227.186 28.5612Z" fill="#072D42"/>
<path d="M82.513 57.0618H81.214V52.5368H76.2738V57.0618H74.9815V47.2722H76.2738V51.4812H81.214V47.2722H82.513V57.0618ZM89.109 57.0618C89.0372 56.9184 88.9791 56.6629 88.9338 56.2953C88.3551 56.896 87.6642 57.1962 86.8609 57.1962C86.143 57.1962 85.553 56.9945 85.0908 56.5911C84.6331 56.1833 84.4043 55.6678 84.4043 55.0447C84.4043 54.2871 84.6915 53.6999 85.2658 53.2831C85.8447 52.8617 86.6567 52.6511 87.7023 52.6511H88.9141V52.0796C88.9141 51.6448 88.7841 51.2996 88.5234 51.0441C88.2632 50.7841 87.8795 50.6542 87.3724 50.6542C86.9283 50.6542 86.5558 50.7662 86.2552 50.9903C85.9545 51.2144 85.8043 51.4856 85.8043 51.8039H84.5524C84.5524 51.4409 84.6803 51.0912 84.936 50.755C85.1962 50.4143 85.5462 50.1454 85.9859 49.9482C86.4302 49.751 86.9171 49.6523 87.4465 49.6523C88.2855 49.6523 88.9427 49.863 89.4182 50.2844C89.8938 50.7012 90.1409 51.2772 90.1586 52.0123V55.3607C90.1586 56.0285 90.2443 56.5598 90.4146 56.9542V57.0618H89.109ZM87.0427 56.1137C87.4331 56.1137 87.8032 56.0129 88.1532 55.8112C88.5032 55.6094 88.7566 55.3472 88.9141 55.0245V53.5318H87.9379C86.4123 53.5318 85.6494 53.9779 85.6494 54.8699C85.6494 55.2599 85.7796 55.5647 86.0398 55.7843C86.3 56.004 86.6344 56.1137 87.0427 56.1137ZM93.4708 49.7868V56.0465H96.136V49.7868H97.3806V56.0465H100.039V49.7868H101.291V57.0618H92.2184V49.7868H93.4708ZM107.752 57.0618C107.681 56.9184 107.622 56.6629 107.578 56.2953C106.999 56.896 106.308 57.1962 105.504 57.1962C104.787 57.1962 104.197 56.9945 103.734 56.5911C103.277 56.1833 103.048 55.6678 103.048 55.0447C103.048 54.2871 103.335 53.6999 103.909 53.2831C104.488 52.8617 105.301 52.6511 106.346 52.6511H107.557V52.0796C107.557 51.6448 107.427 51.2996 107.167 51.0441C106.906 50.7841 106.523 50.6542 106.016 50.6542C105.572 50.6542 105.199 50.7662 104.899 50.9903C104.599 51.2144 104.448 51.4856 104.448 51.8039H103.197C103.197 51.4409 103.324 51.0912 103.58 50.755C103.839 50.4143 104.19 50.1454 104.63 49.9482C105.074 49.751 105.561 49.6523 106.09 49.6523C106.929 49.6523 107.587 49.863 108.062 50.2844C108.538 50.7012 108.785 51.2772 108.803 52.0123V55.3607C108.803 56.0285 108.887 56.5598 109.059 56.9542V57.0618H107.752ZM105.687 56.1137C106.076 56.1137 106.447 56.0129 106.797 55.8112C107.147 55.6094 107.401 55.3472 107.557 55.0245V53.5318H106.582C105.056 53.5318 104.293 53.9779 104.293 54.8699C104.293 55.2599 104.423 55.5647 104.683 55.7843C104.944 56.004 105.278 56.1137 105.687 56.1137ZM114.281 49.7868H115.533V56.0465H118.885V49.7868H120.13V56.0465H120.999L120.878 59.22H119.76V57.0618H114.281V49.7868ZM125.366 57.1962C124.379 57.1962 123.576 56.8735 122.957 56.228C122.338 55.5781 122.028 54.7108 122.028 53.626V53.3974C122.028 52.6757 122.165 52.0325 122.438 51.4677C122.717 50.8984 123.103 50.4547 123.596 50.1365C124.094 49.8137 124.633 49.6523 125.212 49.6523C126.158 49.6523 126.895 49.9638 127.419 50.5869C127.944 51.21 128.207 52.102 128.207 53.2629V53.7807H123.273C123.291 54.4978 123.5 55.0783 123.899 55.5221C124.303 55.9614 124.815 56.181 125.433 56.181C125.874 56.181 126.246 56.0913 126.551 55.9121C126.856 55.7328 127.123 55.4952 127.352 55.1993L128.112 55.791C127.502 56.7279 126.587 57.1962 125.366 57.1962ZM125.212 50.6744C124.709 50.6744 124.287 50.8581 123.947 51.2257C123.605 51.5887 123.394 52.0998 123.314 52.7587H126.961V52.6645C126.926 52.0325 126.756 51.5439 126.45 51.1988C126.145 50.8492 125.733 50.6744 125.212 50.6744ZM135.624 49.7868V57.0618H134.372V50.8155H131.895L131.748 53.5386C131.667 54.7892 131.455 55.6834 131.114 56.2213C130.778 56.7592 130.242 57.0394 129.506 57.0618H129.007V55.9658L129.365 55.9389C129.769 55.8941 130.058 55.661 130.232 55.2397C130.408 54.8184 130.52 54.0384 130.569 52.8999L130.704 49.7868H135.624ZM138.982 52.2947H140.874C141.7 52.3037 142.353 52.5189 142.832 52.9402C143.312 53.3616 143.553 53.933 143.553 54.6547C143.553 55.3809 143.306 55.9636 142.812 56.4029C142.319 56.8422 141.654 57.0618 140.82 57.0618H137.738V49.7868H138.982V52.2947ZM138.982 53.3099V56.0465H140.833C141.3 56.0465 141.661 55.9277 141.917 55.6902C142.172 55.4481 142.3 55.1186 142.3 54.7018C142.3 54.2983 142.175 53.9689 141.924 53.7134C141.677 53.4535 141.33 53.319 140.881 53.3099H138.982ZM151.117 53.4109H147.833V52.3956H151.117V53.4109ZM155.951 57.0618V47.2722H159.154C160.218 47.2722 161.016 47.4918 161.55 47.9311C162.089 48.3704 162.357 49.0203 162.357 49.8809C162.357 50.3382 162.227 50.7438 161.967 51.0979C161.708 51.4476 161.353 51.7187 160.904 51.9115C161.434 52.0594 161.85 52.3418 162.156 52.7587C162.466 53.1711 162.62 53.6641 162.62 54.2378C162.62 55.1164 162.336 55.8067 161.766 56.3088C161.196 56.8108 160.39 57.0618 159.349 57.0618H155.951ZM157.242 52.483V56.0062H159.376C159.978 56.0062 160.451 55.8515 160.796 55.5423C161.146 55.2285 161.322 54.7982 161.322 54.2513C161.322 53.0724 160.68 52.483 159.397 52.483H157.242ZM157.242 51.4476H159.195C159.76 51.4476 160.211 51.3063 160.548 51.0239C160.888 50.7415 161.059 50.3583 161.059 49.8742C161.059 49.3363 160.902 48.9463 160.588 48.7043C160.274 48.4578 159.795 48.3345 159.154 48.3345H157.242V51.4476ZM168.839 57.0618C168.768 56.9184 168.709 56.6629 168.665 56.2953C168.086 56.896 167.395 57.1962 166.591 57.1962C165.873 57.1962 165.284 56.9945 164.821 56.5911C164.364 56.1833 164.135 55.6678 164.135 55.0447C164.135 54.2871 164.422 53.6999 164.996 53.2831C165.575 52.8617 166.387 52.6511 167.433 52.6511H168.644V52.0796C168.644 51.6448 168.514 51.2996 168.254 51.0441C167.993 50.7841 167.61 50.6542 167.103 50.6542C166.659 50.6542 166.286 50.7662 165.986 50.9903C165.685 51.2144 165.535 51.4856 165.535 51.8039H164.282C164.282 51.4409 164.41 51.0912 164.666 50.755C164.926 50.4143 165.277 50.1454 165.717 49.9482C166.161 49.751 166.647 49.6523 167.177 49.6523C168.016 49.6523 168.673 49.863 169.149 50.2844C169.625 50.7012 169.872 51.2772 169.889 52.0123V55.3607C169.889 56.0285 169.974 56.5598 170.145 56.9542V57.0618H168.839ZM166.773 56.1137C167.163 56.1137 167.533 56.0129 167.884 55.8112C168.233 55.6094 168.487 55.3472 168.644 55.0245V53.5318H167.668C166.142 53.5318 165.38 53.9779 165.38 54.8699C165.38 55.2599 165.51 55.5647 165.77 55.7843C166.031 56.004 166.365 56.1137 166.773 56.1137ZM173.201 49.7868V56.0465H175.866V49.7868H177.111V56.0465H179.77V49.7868H181.021V57.0618H171.949V49.7868H173.201ZM192.558 53.505C192.558 54.6121 192.305 55.5041 191.797 56.181C191.29 56.8578 190.604 57.1962 189.738 57.1962C188.854 57.1962 188.158 56.9161 187.651 56.3558V59.8589H186.406V49.7868H187.543L187.604 50.5936C188.111 49.9661 188.815 49.6523 189.718 49.6523C190.592 49.6523 191.284 49.9818 191.791 50.6407C192.302 51.2996 192.558 52.2163 192.558 53.3907V53.505ZM191.313 53.3638C191.313 52.5435 191.138 51.8958 190.787 51.4206C190.438 50.9455 189.957 50.7079 189.348 50.7079C188.594 50.7079 188.028 51.0419 187.651 51.7098V55.1859C188.024 55.8493 188.594 56.181 189.361 56.181C189.957 56.181 190.431 55.9456 190.781 55.475C191.136 54.9998 191.313 54.2962 191.313 53.3638ZM197.168 57.1962C196.181 57.1962 195.378 56.8735 194.759 56.228C194.14 55.5781 193.83 54.7108 193.83 53.626V53.3974C193.83 52.6757 193.967 52.0325 194.24 51.4677C194.519 50.8984 194.905 50.4547 195.398 50.1365C195.896 49.8137 196.435 49.6523 197.014 49.6523C197.96 49.6523 198.696 49.9638 199.221 50.5869C199.746 51.21 200.009 52.102 200.009 53.2629V53.7807H195.075C195.093 54.4978 195.302 55.0783 195.701 55.5221C196.105 55.9614 196.616 56.181 197.235 56.181C197.675 56.181 198.048 56.0913 198.353 55.9121C198.658 55.7328 198.925 55.4952 199.153 55.1993L199.914 55.791C199.304 56.7279 198.388 57.1962 197.168 57.1962ZM197.014 50.6744C196.511 50.6744 196.089 50.8581 195.748 51.2257C195.407 51.5887 195.196 52.0998 195.116 52.7587H198.763V52.6645C198.728 52.0325 198.557 51.5439 198.251 51.1988C197.947 50.8492 197.534 50.6744 197.014 50.6744ZM205.461 51.7771C205.461 51.4363 205.331 51.1674 205.07 50.9701C204.81 50.7685 204.453 50.6676 203.999 50.6676C203.56 50.6676 203.192 50.7819 202.896 51.0106C202.604 51.2391 202.459 51.508 202.459 51.8174H201.22C201.22 51.1853 201.485 50.6676 202.015 50.2642C202.544 49.8608 203.206 49.659 203.999 49.659C204.852 49.659 205.517 49.8429 205.992 50.2104C206.468 50.5735 206.705 51.0935 206.705 51.7703C206.705 52.0975 206.607 52.3978 206.41 52.6712C206.212 52.9446 205.931 53.1621 205.568 53.3234C206.416 53.6103 206.84 54.1751 206.84 55.0178C206.84 55.6857 206.582 56.2146 206.066 56.6046C205.55 56.9945 204.861 57.1895 203.999 57.1895C203.161 57.1895 202.467 56.9856 201.92 56.5777C201.377 56.1653 201.106 55.6094 201.106 54.9102H202.344C202.344 55.2643 202.501 55.5691 202.815 55.8247C203.134 56.0757 203.529 56.2012 203.999 56.2012C204.475 56.2012 204.859 56.0913 205.15 55.8717C205.443 55.652 205.589 55.3674 205.589 55.0178C205.589 54.6099 205.465 54.3185 205.218 54.1437C204.976 53.9644 204.596 53.8748 204.08 53.8748H202.836V52.8259H204.189C205.036 52.8035 205.461 52.4538 205.461 51.7771ZM210.838 55.2397L212.534 49.7868H213.867L210.939 58.1846C210.486 59.3949 209.765 60 208.779 60L208.543 59.9798L208.079 59.8924V58.8839L208.415 58.9108C208.837 58.9108 209.165 58.8256 209.398 58.6553C209.635 58.4849 209.831 58.1734 209.984 57.7207L210.259 56.9811L207.661 49.7868H209.021L210.838 55.2397ZM220.671 49.7868V57.0618H219.419V50.8155H216.943L216.794 53.5386C216.713 54.7892 216.503 55.6834 216.162 56.2213C215.825 56.7592 215.29 57.0394 214.553 57.0618H214.055V55.9658L214.412 55.9389C214.816 55.8941 215.106 55.661 215.28 55.2397C215.455 54.8184 215.567 54.0384 215.617 52.8999L215.751 49.7868H220.671ZM224.03 52.2947H225.921C226.747 52.3037 227.4 52.5189 227.88 52.9402C228.36 53.3616 228.6 53.933 228.6 54.6547C228.6 55.3809 228.353 55.9636 227.86 56.4029C227.366 56.8422 226.702 57.0618 225.867 57.0618H222.784V49.7868H224.03V52.2947ZM224.03 53.3099V56.0465H225.881C226.348 56.0465 226.709 55.9277 226.965 55.6902C227.22 55.4481 227.348 55.1186 227.348 54.7018C227.348 54.2983 227.223 53.9689 226.971 53.7134C226.725 53.4535 226.377 53.319 225.928 53.3099H224.03ZM235.095 50.7953H232.652V57.0618H231.406V50.7953H229.011V49.7868H235.095V50.7953ZM240.695 57.0618C240.623 56.9184 240.565 56.6629 240.52 56.2953C239.941 56.896 239.25 57.1962 238.447 57.1962C237.729 57.1962 237.139 56.9945 236.677 56.5911C236.219 56.1833 235.991 55.6678 235.991 55.0447C235.991 54.2871 236.277 53.6999 236.852 53.2831C237.43 52.8617 238.242 52.6511 239.288 52.6511H240.5V52.0796C240.5 51.6448 240.369 51.2996 240.109 51.0441C239.849 50.7841 239.465 50.6542 238.958 50.6542C238.514 50.6542 238.142 50.7662 237.841 50.9903C237.54 51.2144 237.39 51.4856 237.39 51.8039H236.138C236.138 51.4409 236.266 51.0912 236.522 50.755C236.782 50.4143 237.132 50.1454 237.572 49.9482C238.016 49.751 238.503 49.6523 239.032 49.6523C239.872 49.6523 240.529 49.863 241.004 50.2844C241.48 50.7012 241.727 51.2772 241.745 52.0123V55.3607C241.745 56.0285 241.83 56.5598 242.001 56.9542V57.0618H240.695ZM238.628 56.1137C239.019 56.1137 239.389 56.0129 239.739 55.8112C240.089 55.6094 240.343 55.3472 240.5 55.0245V53.5318H239.523C237.998 53.5318 237.235 53.9779 237.235 54.8699C237.235 55.2599 237.365 55.5647 237.626 55.7843C237.886 56.004 238.221 56.1137 238.628 56.1137ZM249 50.7953H246.557V57.0618H245.312V50.7953H242.916V49.7868H249V50.7953Z" fill="#DD3934"/>
<ellipse rx="3.6588" ry="4.88024" transform="matrix(0.937891 -0.34693 0.347559 0.937658 28.5359 27.3259)" fill="#DD3934"/>
<path fill-rule="evenodd" clip-rule="evenodd" d="M36.6177 55.089C47.6651 51.33 52.4806 36.1403 47.3734 21.162C42.2663 6.18365 29.1704 -2.91138 18.1231 0.847676C7.07569 4.60673 2.26018 19.7964 7.36733 34.7747C12.4745 49.7531 25.5703 58.8481 36.6177 55.089ZM35.9243 53.0553C46.1433 49.5781 50.5977 35.5275 45.8735 21.6724C41.1493 7.81723 29.0355 -0.595785 18.8166 2.88138C8.5976 6.35855 4.1432 20.4092 8.86737 34.2643C13.5915 48.1194 25.7053 56.5325 35.9243 53.0553Z" fill="#0B3D54"/>
<path d="M1.90092 36.9491C7.13717 52.3061 21.5797 61.2855 34.1592 57.0051C37.5567 55.849 40.4708 53.844 42.8117 51.2304L42.8509 51.1865C41.0867 52.9399 38.9967 54.2796 36.6176 55.0891C25.5702 58.8481 12.4744 49.7531 7.36725 34.7747C2.2601 19.7964 7.07561 4.60674 18.123 0.847688C18.5944 0.687299 19.0694 0.550311 19.5475 0.436182C18.0841 0.590006 16.6285 0.905385 15.1971 1.39246C2.61755 5.67285 -3.33534 21.5921 1.90092 36.9491Z" fill="#072D42"/>
<path fill-rule="evenodd" clip-rule="evenodd" d="M35.8237 46.9709C43.8175 44.022 47.0449 32.8321 43.0324 21.9776C39.0199 11.1232 29.2869 4.71448 21.2931 7.66342C13.2993 10.6124 10.0719 21.8022 14.0844 32.6567C18.0969 43.5111 27.8299 49.9198 35.8237 46.9709ZM34.3315 43.0057C40.6985 40.6559 43.2655 31.73 40.0652 23.069C36.8648 14.408 29.1089 9.29176 22.742 11.6415C16.375 13.9913 13.808 22.9172 17.0083 31.5782C20.2087 40.2392 27.9646 45.3554 34.3315 43.0057Z" fill="#DD3934"/>
<path fill-rule="evenodd" clip-rule="evenodd" d="M32.9845 39.2705C37.8751 37.4664 39.861 30.651 37.4201 24.048C34.9792 17.445 29.0358 13.5548 24.1452 15.359C19.2546 17.1631 17.2687 23.9785 19.7096 30.5815C22.1505 37.1845 28.0939 41.0747 32.9845 39.2705ZM31.6155 35.5754C34.9944 34.3284 36.3669 29.6189 34.681 25.0565C32.9951 20.4941 28.8893 17.8064 25.5104 19.0534C22.1315 20.3004 20.759 25.0098 22.4449 29.5723C24.1308 34.1347 28.2366 36.8224 31.6155 35.5754Z" fill="#DD3934"/>
<path d="M67.237 2.88012L65.5013 12.0447L53.0511 17.2765L54.6724 9.36237L67.237 2.88012Z" fill="#DD3934"/>
<path d="M72.1423 17.0927L65.0441 11.6403L52.8334 16.7715L59.6302 21.1482L72.1423 17.0927Z" fill="#DD3934"/>
<rect width="3.2544" height="43.2314" rx="1.6272" transform="matrix(-0.388085 -0.921624 0.921909 -0.387406 27.9463 29.4605)" fill="#0B3D54"/>
</svg>
