<svg width="258" height="179" viewBox="0 0 258 179" fill="none" xmlns="http://www.w3.org/2000/svg">
<path opacity="0.2" d="M258 156.958L235.497 179H100L191.927 87H258V156.958Z" fill="#C6A718"/>
<path opacity="0.3" d="M258 21V87H192L258 21Z" fill="#9F62CB"/>
<path opacity="0.3" d="M111 19.2265V87H190.057H191.971L258 20.6685V0H130.139L111 19.2265Z" fill="#AF353D"/>
<path d="M105.464 38.7132C105.512 31.0313 106.121 30 112.681 30H127.343C134.296 30 134.563 31.1521 134.563 40.1664C134.563 49.1807 134.296 50.3328 127.343 50.3328H112.681C106.122 50.3328 105.512 49.3014 105.464 41.6239V38.7132ZM105.464 38.7132C89.7515 38.7641 89.1221 39.8755 89.1221 56.5178V68.0429M89.1221 68.0429C88.6162 68.037 88.0988 68.0341 87.5507 68.0341H55.5932C55.0437 68.0341 54.5233 68.037 54.0175 68.0429M89.1221 68.0429L92.0293 68.1301C101.282 68.6436 101.564 71.6721 101.572 87.0243V88.4789M54.0175 68.0429V56.5178C54.0175 39.8755 53.3866 38.7627 37.6745 38.7132M54.0175 68.0429L51.1088 68.1301C41.8609 68.6436 41.5775 71.6736 41.5688 87.0141L41.5702 88.4687M37.6745 38.7132C37.6266 31.0313 37.0161 30 30.4574 30H15.7948C8.84076 30 8.5733 31.1521 8.5733 40.1649C8.5733 49.1793 8.84076 50.3313 15.7948 50.3313H30.4559C37.0146 50.3313 37.6251 49.3 37.6731 41.6225L37.6745 38.7132ZM37.6731 138.285C37.6251 145.967 37.0161 147 30.4559 147H15.7948C8.84076 147 8.5733 145.848 8.5733 136.834V136.832V136.831C8.5733 127.818 8.84076 126.667 15.7948 126.667H30.4588C37.0175 126.667 37.628 127.699 37.676 135.378L37.6731 138.285ZM37.6731 138.285C53.3895 138.236 54.0189 137.123 54.0189 120.482V108.911M54.0189 108.911C54.5248 108.916 55.0452 108.919 55.5932 108.919H87.5507C88.0988 108.919 88.6162 108.916 89.1221 108.911M54.0189 108.911L51.1131 108.822C41.8609 108.31 41.5789 105.278 41.5717 89.9233L41.5702 88.4687M89.1221 108.911V120.482C89.1221 137.123 89.753 138.236 105.464 138.285M89.1221 108.911L92.0293 108.822C101.282 108.308 101.565 105.28 101.572 89.9335V88.4789M105.464 138.285C105.512 145.966 106.122 146.997 112.681 146.997H127.343C134.296 146.997 134.563 145.845 134.563 136.831C134.563 127.818 134.296 126.666 127.343 126.666H112.681C106.121 126.666 105.512 127.699 105.464 135.378V138.285ZM101.572 88.4789H112.9M112.9 88.4789V87.0243C112.948 79.3409 113.556 78.3096 120.117 78.3096H134.778C141.733 78.3096 142 79.4617 142 88.476C142 97.4889 141.733 98.6409 134.778 98.6409H120.117C113.559 98.6409 112.948 97.6096 112.9 89.9335V88.4789ZM41.5702 88.4687H30.0983M30.0983 88.4687L30.0998 89.9233C30.0518 97.6081 29.4428 98.6395 22.8826 98.6395H8.22153C1.26746 98.6395 1 97.4874 1 88.4731C1 79.4588 1.26746 78.3067 8.22153 78.3067H22.8797C29.4369 78.3067 30.0489 79.338 30.0969 87.0141L30.0983 88.4687Z" stroke="white"/>
<path d="M92.0289 68.1302C101.281 68.6437 101.563 71.6722 101.572 87.0243V88.479V89.9336C101.565 105.28 101.281 108.308 92.0289 108.822L89.1217 108.911C88.6158 108.916 88.0984 108.919 87.5504 108.919H55.5928C55.0448 108.919 54.5244 108.916 54.0185 108.911L51.1127 108.822C41.8605 108.31 41.5785 105.278 41.5713 89.9234L41.5698 88.4688L41.5684 87.0141C41.5771 71.6737 41.8605 68.6437 51.1084 68.1302L54.0171 68.0429C54.5229 68.0371 55.0433 68.0342 55.5928 68.0342H87.5504C88.0984 68.0342 88.6158 68.0371 89.1217 68.0429L92.0289 68.1302Z" stroke="#FFDE01"/>
<path d="M61.1765 86L61.1655 81.38L58.8995 85.186H58.0965L55.8415 81.479V86H54.1695V78.3H55.6435L58.5255 83.085L61.3635 78.3H62.8265L62.8485 86H61.1765ZM65.7754 78.3H67.5574V86H65.7754V78.3ZM77.5468 78.3V86H76.0838L72.2448 81.325V86H70.4848V78.3H71.9588L75.7868 82.975V78.3H77.5468ZM80.4686 78.3H83.9666C84.8026 78.3 85.5396 78.4613 86.1776 78.784C86.8229 79.0993 87.3216 79.5467 87.6736 80.126C88.0329 80.7053 88.2126 81.38 88.2126 82.15C88.2126 82.92 88.0329 83.5947 87.6736 84.174C87.3216 84.7533 86.8229 85.2043 86.1776 85.527C85.5396 85.8423 84.8026 86 83.9666 86H80.4686V78.3ZM83.8786 84.537C84.6486 84.537 85.2609 84.3243 85.7156 83.899C86.1776 83.4663 86.4086 82.8833 86.4086 82.15C86.4086 81.4167 86.1776 80.8373 85.7156 80.412C85.2609 79.9793 84.6486 79.763 83.8786 79.763H82.2506V84.537H83.8786ZM64.2778 99L64.2668 94.38L62.0008 98.186H61.1978L58.9428 94.479V99H57.2708V91.3H58.7448L61.6268 96.085L64.4648 91.3H65.9278L65.9498 99H64.2778ZM73.9477 97.35H70.3727L69.6907 99H67.8647L71.2967 91.3H73.0567L76.4997 99H74.6297L73.9477 97.35ZM73.3867 95.997L72.1657 93.049L70.9447 95.997H73.3867ZM81.7315 91.3C82.4135 91.3 83.0039 91.4137 83.5025 91.641C84.0085 91.8683 84.3972 92.191 84.6685 92.609C84.9399 93.027 85.0755 93.522 85.0755 94.094C85.0755 94.6587 84.9399 95.1537 84.6685 95.579C84.3972 95.997 84.0085 96.3197 83.5025 96.547C83.0039 96.767 82.4135 96.877 81.7315 96.877H80.1805V99H78.3985V91.3H81.7315ZM81.6325 95.425C82.1679 95.425 82.5749 95.3113 82.8535 95.084C83.1322 94.8493 83.2715 94.5193 83.2715 94.094C83.2715 93.6613 83.1322 93.3313 82.8535 93.104C82.5749 92.8693 82.1679 92.752 81.6325 92.752H80.1805V95.425H81.6325Z" fill="#FFDE01"/>
</svg>
