<svg width="176" height="47" viewBox="0 0 176 47" fill="none" xmlns="http://www.w3.org/2000/svg">
<path d="M16.225 0.499999H17.225V-0.500001H16.225V0.499999ZM16.225 18V19H17.225V18H16.225ZM12.175 18H11.175V19H12.175V18ZM12.175 10.825H13.175V9.825H12.175V10.825ZM4.225 10.825V9.825H3.225V10.825H4.225ZM4.225 18V19H5.225V18H4.225ZM0.175 18H-0.825V19H0.175V18ZM0.175 0.499999V-0.500001H-0.825V0.499999H0.175ZM4.225 0.499999H5.225V-0.500001H4.225V0.499999ZM4.225 7.4H3.225V8.4H4.225V7.4ZM12.175 7.4V8.4H13.175V7.4H12.175ZM12.175 0.499999V-0.500001H11.175V0.499999H12.175ZM15.225 0.499999V18H17.225V0.499999H15.225ZM16.225 17H12.175V19H16.225V17ZM13.175 18V10.825H11.175V18H13.175ZM12.175 9.825H4.225V11.825H12.175V9.825ZM3.225 10.825V18H5.225V10.825H3.225ZM4.225 17H0.175V19H4.225V17ZM1.175 18V0.499999H-0.825V18H1.175ZM0.175 1.5H4.225V-0.500001H0.175V1.5ZM3.225 0.499999V7.4H5.225V0.499999H3.225ZM4.225 8.4H12.175V6.4H4.225V8.4ZM13.175 7.4V0.499999H11.175V7.4H13.175ZM12.175 1.5H16.225V-0.500001H12.175V1.5ZM34.9596 14.25L35.8837 13.868L35.6283 13.25H34.9596V14.25ZM26.8346 14.25V13.25H26.1658L25.9104 13.868L26.8346 14.25ZM25.2846 18V19H25.9533L26.2087 18.382L25.2846 18ZM21.1346 18L20.2212 17.5929L19.594 19H21.1346V18ZM28.9346 0.499999V-0.500001H28.2855L28.0212 0.0928922L28.9346 0.499999ZM32.9346 0.499999L33.8475 0.0918045L33.5828 -0.500001H32.9346V0.499999ZM40.7596 18V19H42.3021L41.6725 17.5918L40.7596 18ZM36.5096 18L35.5854 18.382L35.8408 19H36.5096V18ZM33.6846 11.175V12.175H35.1811L34.6085 10.7923L33.6846 11.175ZM30.9096 4.475L31.8335 4.09234L30.9096 1.86169L29.9857 4.09234L30.9096 4.475ZM28.1346 11.175L27.2107 10.7923L26.638 12.175H28.1346V11.175ZM34.9596 13.25H26.8346V15.25H34.9596V13.25ZM25.9104 13.868L24.3604 17.618L26.2087 18.382L27.7587 14.632L25.9104 13.868ZM25.2846 17H21.1346V19H25.2846V17ZM22.048 18.4071L29.848 0.907105L28.0212 0.0928922L20.2212 17.5929L22.048 18.4071ZM28.9346 1.5H32.9346V-0.500001H28.9346V1.5ZM32.0217 0.908193L39.8467 18.4082L41.6725 17.5918L33.8475 0.0918045L32.0217 0.908193ZM40.7596 17H36.5096V19H40.7596V17ZM37.4337 17.618L35.8837 13.868L34.0354 14.632L35.5854 18.382L37.4337 17.618ZM34.6085 10.7923L31.8335 4.09234L29.9857 4.85766L32.7607 11.5577L34.6085 10.7923ZM29.9857 4.09234L27.2107 10.7923L29.0585 11.5577L31.8335 4.85766L29.9857 4.09234ZM28.1346 12.175H33.6846V10.175H28.1346V12.175ZM68.6803 0.499999H69.6803V-0.500001H68.6803V0.499999ZM68.6803 18V19H69.6803V18H68.6803ZM45.5803 18H44.5803V19H45.5803V18ZM45.5803 0.499999V-0.500001H44.5803V0.499999H45.5803ZM49.6053 0.499999H50.6053V-0.500001H49.6053V0.499999ZM49.6053 14.7H48.6053V15.7H49.6053V14.7ZM55.1303 14.7V15.7H56.1303V14.7H55.1303ZM55.1303 0.499999V-0.500001H54.1303V0.499999H55.1303ZM59.1553 0.499999H60.1553V-0.500001H59.1553V0.499999ZM59.1553 14.7H58.1553V15.7H59.1553V14.7ZM64.6553 14.7V15.7H65.6553V14.7H64.6553ZM64.6553 0.499999V-0.500001H63.6553V0.499999H64.6553ZM67.6803 0.499999V18H69.6803V0.499999H67.6803ZM68.6803 17H45.5803V19H68.6803V17ZM46.5803 18V0.499999H44.5803V18H46.5803ZM45.5803 1.5H49.6053V-0.500001H45.5803V1.5ZM48.6053 0.499999V14.7H50.6053V0.499999H48.6053ZM49.6053 15.7H55.1303V13.7H49.6053V15.7ZM56.1303 14.7V0.499999H54.1303V14.7H56.1303ZM55.1303 1.5H59.1553V-0.500001H55.1303V1.5ZM58.1553 0.499999V14.7H60.1553V0.499999H58.1553ZM59.1553 15.7H64.6553V13.7H59.1553V15.7ZM65.6553 14.7V0.499999H63.6553V14.7H65.6553ZM64.6553 1.5H68.6803V-0.500001H64.6553V1.5ZM87.3717 14.25L88.2958 13.868L88.0404 13.25H87.3717V14.25ZM79.2467 14.25V13.25H78.578L78.3225 13.868L79.2467 14.25ZM77.6967 18V19H78.3654L78.6208 18.382L77.6967 18ZM73.5467 18L72.6333 17.5929L72.0061 19H73.5467V18ZM81.3467 0.499999V-0.500001H80.6976L80.4333 0.0928922L81.3467 0.499999ZM85.3467 0.499999L86.2596 0.0918045L85.995 -0.500001H85.3467V0.499999ZM93.1717 18V19H94.7142L94.0846 17.5918L93.1717 18ZM88.9217 18L87.9975 18.382L88.253 19H88.9217V18ZM86.0967 11.175V12.175H87.5932L87.0206 10.7923L86.0967 11.175ZM83.3217 4.475L84.2456 4.09234L83.3217 1.86169L82.3978 4.09234L83.3217 4.475ZM80.5467 11.175L79.6228 10.7923L79.0501 12.175H80.5467V11.175ZM87.3717 13.25H79.2467V15.25H87.3717V13.25ZM78.3225 13.868L76.7725 17.618L78.6208 18.382L80.1708 14.632L78.3225 13.868ZM77.6967 17H73.5467V19H77.6967V17ZM74.4601 18.4071L82.2601 0.907105L80.4333 0.0928922L72.6333 17.5929L74.4601 18.4071ZM81.3467 1.5H85.3467V-0.500001H81.3467V1.5ZM84.4338 0.908193L92.2588 18.4082L94.0846 17.5918L86.2596 0.0918045L84.4338 0.908193ZM93.1717 17H88.9217V19H93.1717V17ZM89.8458 17.618L88.2958 13.868L86.4475 14.632L87.9975 18.382L89.8458 17.618ZM87.0206 10.7923L84.2456 4.09234L82.3978 4.85766L85.1728 11.5577L87.0206 10.7923ZM82.3978 4.09234L79.6228 10.7923L81.4706 11.5577L84.2456 4.85766L82.3978 4.09234ZM80.5467 12.175H86.0967V10.175H80.5467V12.175ZM6.95 38.95L7.79021 38.4077L7.49479 37.95H6.95V38.95ZM4.15 38.95V37.95H3.15V38.95H4.15ZM4.15 46V47H5.15V46H4.15ZM0.125 46H-0.875V47H0.125V46ZM0.125 28.5V27.5H-0.875V28.5H0.125ZM4.15 28.5H5.15V27.5H4.15V28.5ZM4.15 35.575H3.15V36.575H4.15V35.575ZM7.05 35.575V36.575H7.59261L7.88838 36.1201L7.05 35.575ZM11.65 28.5V27.5H11.1074L10.8116 27.9549L11.65 28.5ZM15.925 28.5L16.7529 29.0609L17.8104 27.5H15.925V28.5ZM10.2 36.95L9.37212 36.3891L8.99932 36.9393L9.3623 37.4961L10.2 36.95ZM16.1 46V47H17.9457L16.9377 45.4539L16.1 46ZM11.5 46L10.6598 46.5423L10.9552 47H11.5V46ZM6.95 37.95H4.15V39.95H6.95V37.95ZM3.15 38.95V46H5.15V38.95H3.15ZM4.15 45H0.125V47H4.15V45ZM1.125 46V28.5H-0.875V46H1.125ZM0.125 29.5H4.15V27.5H0.125V29.5ZM3.15 28.5V35.575H5.15V28.5H3.15ZM4.15 36.575H7.05V34.575H4.15V36.575ZM7.88838 36.1201L12.4884 29.0451L10.8116 27.9549L6.21162 35.0299L7.88838 36.1201ZM11.65 29.5H15.925V27.5H11.65V29.5ZM15.0971 27.9391L9.37212 36.3891L11.0279 37.5109L16.7529 29.0609L15.0971 27.9391ZM9.3623 37.4961L15.2623 46.5461L16.9377 45.4539L11.0377 36.4039L9.3623 37.4961ZM16.1 45H11.5V47H16.1V45ZM12.3402 45.4577L7.79021 38.4077L6.10979 39.4923L10.6598 46.5423L12.3402 45.4577ZM23.849 45.125L23.3737 46.0048L23.3779 46.0071L23.849 45.125ZM20.424 41.9L19.5629 42.4084L19.5665 42.4145L19.5702 42.4206L20.424 41.9ZM20.424 32.625L19.5674 32.109L19.5656 32.112L20.424 32.625ZM23.849 29.375L23.3779 28.4929L23.3737 28.4952L23.849 29.375ZM37.099 32.625L36.2424 33.141L36.2452 33.1456L37.099 32.625ZM37.099 41.9L37.9528 42.4206L37.9556 42.416L37.099 41.9ZM33.674 45.125L34.1493 46.0048L33.674 45.125ZM31.574 42.15L32.0626 43.0225L32.0692 43.0188L32.0757 43.015L31.574 42.15ZM33.524 40.15L32.6547 39.6557L32.651 39.6622L32.6474 39.6687L33.524 40.15ZM33.524 34.35L32.6474 34.8313L32.651 34.8378L32.6547 34.8443L33.524 34.35ZM31.574 32.375L31.0723 33.24L31.0788 33.2438L31.0854 33.2475L31.574 32.375ZM25.974 32.375L26.4626 33.2475L26.4692 33.2438L26.4757 33.24L25.974 32.375ZM23.999 34.35L23.1297 33.8557L23.126 33.8622L23.1224 33.8687L23.999 34.35ZM23.999 40.15L23.1224 40.6313L23.126 40.6378L23.1297 40.6443L23.999 40.15ZM25.974 42.15L25.4723 43.015L25.4788 43.0188L25.4854 43.0225L25.974 42.15ZM28.774 45.3C27.1061 45.3 25.6287 44.9418 24.3201 44.2429L23.3779 46.0071C25.0027 46.8748 26.8086 47.3 28.774 47.3V45.3ZM24.3243 44.2452C23.0252 43.5434 22.0162 42.5903 21.2778 41.3794L19.5702 42.4206C20.4985 43.943 21.7728 45.14 23.3737 46.0048L24.3243 44.2452ZM21.2852 41.3916C20.5657 40.1729 20.199 38.8006 20.199 37.25H18.199C18.199 39.1328 18.649 40.8604 19.5629 42.4084L21.2852 41.3916ZM20.199 37.25C20.199 35.6993 20.5657 34.3375 21.2824 33.138L19.5656 32.112C18.649 33.6459 18.199 35.3673 18.199 37.25H20.199ZM21.2806 33.141C22.0197 31.9141 23.0283 30.955 24.3243 30.2548L23.3737 28.4952C21.7698 29.3617 20.495 30.5692 19.5674 32.109L21.2806 33.141ZM24.3201 30.2571C25.6287 29.5582 27.1061 29.2 28.774 29.2V27.2C26.8086 27.2 25.0027 27.6252 23.3779 28.4929L24.3201 30.2571ZM28.774 29.2C30.4421 29.2 31.9093 29.5582 33.1987 30.2548L34.1493 28.4952C32.5388 27.6251 30.7393 27.2 28.774 27.2V29.2ZM33.1987 30.2548C34.4948 30.955 35.5034 31.9141 36.2424 33.141L37.9556 32.109C37.028 30.5692 35.7533 29.3617 34.1493 28.4952L33.1987 30.2548ZM36.2452 33.1456C36.976 34.3441 37.349 35.7032 37.349 37.25H39.349C39.349 35.3635 38.8887 33.6393 37.9528 32.1044L36.2452 33.1456ZM37.349 37.25C37.349 38.7967 36.976 40.1663 36.2424 41.384L37.9556 42.416C38.8887 40.867 39.349 39.1366 39.349 37.25H37.349ZM36.2452 41.3794C35.5069 42.5903 34.4978 43.5434 33.1987 44.2452L34.1493 46.0048C35.7502 45.14 37.0245 43.943 37.9528 42.4206L36.2452 41.3794ZM33.1987 44.2452C31.9093 44.9418 30.4421 45.3 28.774 45.3V47.3C30.7393 47.3 32.5388 46.8749 34.1493 46.0048L33.1987 44.2452ZM28.774 43.85C29.964 43.85 31.0679 43.5795 32.0626 43.0225L31.0854 41.2775C30.4135 41.6538 29.6507 41.85 28.774 41.85V43.85ZM32.0757 43.015C33.0677 42.4397 33.8469 41.6398 34.4006 40.6313L32.6474 39.6687C32.2678 40.3602 31.747 40.8937 31.0723 41.285L32.0757 43.015ZM34.3933 40.6443C34.9713 39.6278 35.249 38.4875 35.249 37.25H33.249C33.249 38.1792 33.0434 38.9722 32.6547 39.6557L34.3933 40.6443ZM35.249 37.25C35.249 36.0125 34.9713 34.8722 34.3933 33.8557L32.6547 34.8443C33.0434 35.5278 33.249 36.3208 33.249 37.25H35.249ZM34.4006 33.8687C33.8453 32.8572 33.062 32.0621 32.0626 31.5025L31.0854 33.2475C31.7527 33.6212 32.2695 34.1428 32.6474 34.8313L34.4006 33.8687ZM32.0757 31.51C31.0789 30.9318 29.9703 30.65 28.774 30.65V32.65C29.6444 32.65 30.4025 32.8515 31.0723 33.24L32.0757 31.51ZM28.774 30.65C27.5777 30.65 26.4691 30.9318 25.4723 31.51L26.4757 33.24C27.1456 32.8515 27.9037 32.65 28.774 32.65V30.65ZM25.4854 31.5025C24.4892 32.0604 23.7009 32.8513 23.1297 33.8557L24.8683 34.8443C25.2638 34.1487 25.7922 33.6229 26.4626 33.2475L25.4854 31.5025ZM23.1224 33.8687C22.5657 34.8829 22.299 36.0185 22.299 37.25H24.299C24.299 36.3148 24.4991 35.5171 24.8756 34.8313L23.1224 33.8687ZM22.299 37.25C22.299 38.4815 22.5657 39.6171 23.1224 40.6313L24.8756 39.6687C24.4991 38.9829 24.299 38.1852 24.299 37.25H22.299ZM23.1297 40.6443C23.6992 41.6458 24.4834 42.4415 25.4723 43.015L26.4757 41.285C25.798 40.8919 25.2655 40.3542 24.8683 39.6557L23.1297 40.6443ZM25.4854 43.0225C26.4801 43.5795 27.584 43.85 28.774 43.85V41.85C27.8974 41.85 27.1346 41.6538 26.4626 41.2775L25.4854 43.0225ZM59.8939 46L58.8939 46.0024L58.8963 47H59.8939V46ZM59.8689 35.525L60.8689 35.5226L60.8603 31.9141L59.0104 35.0123L59.8689 35.525ZM54.7189 44.15V45.15H55.2865L55.5775 44.6627L54.7189 44.15ZM52.9189 44.15L52.0657 44.6716L52.3582 45.15H52.9189V44.15ZM47.7689 35.725L48.6222 35.2034L46.7689 32.1717V35.725H47.7689ZM47.7689 46V47H48.7689V46H47.7689ZM43.9689 46H42.9689V47H43.9689V46ZM43.9689 28.5V27.5H42.9689V28.5H43.9689ZM47.3189 28.5L48.1756 27.9841L47.884 27.5H47.3189V28.5ZM53.8689 39.375L53.0123 39.8909L53.8755 41.3242L54.729 39.8851L53.8689 39.375ZM60.3189 28.5V27.5H59.7494L59.4588 27.9899L60.3189 28.5ZM63.6689 28.5L64.6689 28.4986L64.6675 27.5H63.6689V28.5ZM63.6939 46V47H64.6954L64.6939 45.9986L63.6939 46ZM60.8939 45.9976L60.8689 35.5226L58.8689 35.5274L58.8939 46.0024L60.8939 45.9976ZM59.0104 35.0123L53.8604 43.6373L55.5775 44.6627L60.7275 36.0377L59.0104 35.0123ZM54.7189 43.15H52.9189V45.15H54.7189V43.15ZM53.7722 43.6284L48.6222 35.2034L46.9157 36.2466L52.0657 44.6716L53.7722 43.6284ZM46.7689 35.725V46H48.7689V35.725H46.7689ZM47.7689 45H43.9689V47H47.7689V45ZM44.9689 46V28.5H42.9689V46H44.9689ZM43.9689 29.5H47.3189V27.5H43.9689V29.5ZM46.4623 29.0159L53.0123 39.8909L54.7256 38.8591L48.1756 27.9841L46.4623 29.0159ZM54.729 39.8851L61.179 29.0101L59.4588 27.9899L53.0088 38.8649L54.729 39.8851ZM60.3189 29.5H63.6689V27.5H60.3189V29.5ZM62.6689 28.5014L62.6939 46.0014L64.6939 45.9986L64.6689 28.4986L62.6689 28.5014ZM63.6939 45H59.8939V47H63.6939V45ZM86.4912 28.5H87.4912V27.5H86.4912V28.5ZM86.4912 46V47H87.4912V46H86.4912ZM82.4662 46H81.4662V47H82.4662V46ZM82.4662 31.8H83.4662V30.8H82.4662V31.8ZM74.5662 31.8V30.8H73.5662V31.8H74.5662ZM74.5662 46V47H75.5662V46H74.5662ZM70.5412 46H69.5412V47H70.5412V46ZM70.5412 28.5V27.5H69.5412V28.5H70.5412ZM85.4912 28.5V46H87.4912V28.5H85.4912ZM86.4912 45H82.4662V47H86.4912V45ZM83.4662 46V31.8H81.4662V46H83.4662ZM82.4662 30.8H74.5662V32.8H82.4662V30.8ZM73.5662 31.8V46H75.5662V31.8H73.5662ZM74.5662 45H70.5412V47H74.5662V45ZM71.5412 46V28.5H69.5412V46H71.5412ZM70.5412 29.5H86.4912V27.5H70.5412V29.5ZM105.179 42.25L106.103 41.868L105.848 41.25H105.179V42.25ZM97.0543 42.25V41.25H96.3856L96.1301 41.868L97.0543 42.25ZM95.5043 46V47H96.173L96.4285 46.382L95.5043 46ZM91.3543 46L90.4409 45.5929L89.8138 47H91.3543V46ZM99.1543 28.5V27.5H98.5052L98.2409 28.0929L99.1543 28.5ZM103.154 28.5L104.067 28.0918L103.803 27.5H103.154V28.5ZM110.979 46V47H112.522L111.892 45.5918L110.979 46ZM106.729 46L105.805 46.382L106.061 47H106.729V46ZM103.904 39.175V40.175H105.401L104.828 38.7923L103.904 39.175ZM101.129 32.475L102.053 32.0923L101.129 29.8617L100.205 32.0923L101.129 32.475ZM98.3543 39.175L97.4304 38.7923L96.8577 40.175H98.3543V39.175ZM105.179 41.25H97.0543V43.25H105.179V41.25ZM96.1301 41.868L94.5801 45.618L96.4285 46.382L97.9785 42.632L96.1301 41.868ZM95.5043 45H91.3543V47H95.5043V45ZM92.2677 46.4071L100.068 28.9071L98.2409 28.0929L90.4409 45.5929L92.2677 46.4071ZM99.1543 29.5H103.154V27.5H99.1543V29.5ZM102.241 28.9082L110.066 46.4082L111.892 45.5918L104.067 28.0918L102.241 28.9082ZM110.979 45H106.729V47H110.979V45ZM107.653 45.618L106.103 41.868L104.255 42.632L105.805 46.382L107.653 45.618ZM104.828 38.7923L102.053 32.0923L100.205 32.8577L102.98 39.5577L104.828 38.7923ZM100.205 32.0923L97.4304 38.7923L99.2782 39.5577L102.053 32.8577L100.205 32.0923ZM98.3543 40.175H103.904V38.175H98.3543V40.175ZM131.85 28.5H132.85V27.5H131.85V28.5ZM131.85 46V47H132.85V46H131.85ZM127.8 46H126.8V47H127.8V46ZM127.8 38.825H128.8V37.825H127.8V38.825ZM119.85 38.825V37.825H118.85V38.825H119.85ZM119.85 46V47H120.85V46H119.85ZM115.8 46H114.8V47H115.8V46ZM115.8 28.5V27.5H114.8V28.5H115.8ZM119.85 28.5H120.85V27.5H119.85V28.5ZM119.85 35.4H118.85V36.4H119.85V35.4ZM127.8 35.4V36.4H128.8V35.4H127.8ZM127.8 28.5V27.5H126.8V28.5H127.8ZM130.85 28.5V46H132.85V28.5H130.85ZM131.85 45H127.8V47H131.85V45ZM128.8 46V38.825H126.8V46H128.8ZM127.8 37.825H119.85V39.825H127.8V37.825ZM118.85 38.825V46H120.85V38.825H118.85ZM119.85 45H115.8V47H119.85V45ZM116.8 46V28.5H114.8V46H116.8ZM115.8 29.5H119.85V27.5H115.8V29.5ZM118.85 28.5V35.4H120.85V28.5H118.85ZM119.85 36.4H127.8V34.4H119.85V36.4ZM128.8 35.4V28.5H126.8V35.4H128.8ZM127.8 29.5H131.85V27.5H127.8V29.5ZM138.735 28.5V27.5H137.735V28.5H138.735ZM142.76 28.5H143.76V27.5H142.76V28.5ZM142.76 39.9H141.76V42.9576L143.566 40.4909L142.76 39.9ZM151.11 28.5V27.5H150.602L150.303 27.9091L151.11 28.5ZM154.91 28.5H155.91V27.5H154.91V28.5ZM154.91 46V47H155.91V46H154.91ZM150.91 46H149.91V47H150.91V46ZM150.91 34.625H151.91V31.5728L150.103 34.0333L150.91 34.625ZM142.56 46V47H143.066L143.366 46.5917L142.56 46ZM138.735 46H137.735V47H138.735V46ZM138.735 29.5H142.76V27.5H138.735V29.5ZM141.76 28.5V39.9H143.76V28.5H141.76ZM143.566 40.4909L151.916 29.0909L150.303 27.9091L141.953 39.3091L143.566 40.4909ZM151.11 29.5H154.91V27.5H151.11V29.5ZM153.91 28.5V46H155.91V28.5H153.91ZM154.91 45H150.91V47H154.91V45ZM151.91 46V34.625H149.91V46H151.91ZM150.103 34.0333L141.753 45.4083L143.366 46.5917L151.716 35.2167L150.103 34.0333ZM142.56 45H138.735V47H142.56V45ZM139.735 46V28.5H137.735V46H139.735ZM175.742 28.5H176.742V27.5H175.742V28.5ZM175.742 46V47H176.742V46H175.742ZM171.742 46H170.742V47H171.742V46ZM171.742 41.35H172.742V40.35H171.742V41.35ZM168.042 41.35V40.35H167.507L167.21 40.7953L168.042 41.35ZM164.942 46V47H165.477L165.774 46.5547L164.942 46ZM160.667 46L159.844 45.431L158.759 47H160.667V46ZM164.317 40.725L165.139 41.294L165.848 40.2701L164.695 39.7992L164.317 40.725ZM161.592 38.55L160.751 39.0915L160.755 39.098L161.592 38.55ZM161.567 31.55L162.41 32.0878L162.414 32.0813L161.567 31.55ZM164.192 29.3L164.607 30.21L164.618 30.2048L164.192 29.3ZM165.642 32.6L164.988 31.8436L164.977 31.8526L165.642 32.6ZM165.617 37.325L164.931 38.0526L165.617 37.325ZM171.742 38.15V39.15H172.742V38.15H171.742ZM171.742 31.8H172.742V30.8H171.742V31.8ZM174.742 28.5V46H176.742V28.5H174.742ZM175.742 45H171.742V47H175.742V45ZM172.742 46V41.35H170.742V46H172.742ZM171.742 40.35H168.042V42.35H171.742V40.35ZM167.21 40.7953L164.11 45.4453L165.774 46.5547L168.874 41.9047L167.21 40.7953ZM164.942 45H160.667V47H164.942V45ZM161.489 46.569L165.139 41.294L163.494 40.156L159.844 45.431L161.489 46.569ZM164.695 39.7992C163.678 39.384 162.939 38.7814 162.428 38.002L160.755 39.098C161.511 40.2519 162.589 41.0993 163.939 41.6508L164.695 39.7992ZM162.433 38.0085C161.92 37.2123 161.642 36.2326 161.642 35.025H159.642C159.642 36.5507 159.997 37.921 160.751 39.0915L162.433 38.0085ZM161.642 35.025C161.642 33.8312 161.913 32.8671 162.41 32.0878L160.724 31.0122C159.988 32.1662 159.642 33.5188 159.642 35.025H161.642ZM162.414 32.0813C162.919 31.276 163.638 30.6516 164.607 30.2099L163.777 28.3901C162.479 28.9817 161.448 29.8573 160.72 31.0187L162.414 32.0813ZM164.618 30.2048C165.591 29.7466 166.773 29.5 168.192 29.5V27.5C166.544 27.5 165.059 27.7867 163.766 28.3952L164.618 30.2048ZM168.192 29.5H175.742V27.5H168.192V29.5ZM168.292 30.8C166.999 30.8 165.848 31.0992 164.988 31.8436L166.296 33.3564C166.669 33.0341 167.284 32.8 168.292 32.8V30.8ZM164.977 31.8526C164.103 32.6299 163.742 33.7326 163.742 34.975H165.742C165.742 34.1174 165.981 33.6368 166.306 33.3474L164.977 31.8526ZM163.742 34.975C163.742 36.1887 164.096 37.2659 164.931 38.0526L166.303 36.5974C165.971 36.2841 165.742 35.7946 165.742 34.975H163.742ZM164.931 38.0526C165.764 38.8386 166.909 39.15 168.192 39.15V37.15C167.208 37.15 166.636 36.9114 166.303 36.5974L164.931 38.0526ZM168.192 39.15H171.742V37.15H168.192V39.15ZM172.742 38.15V31.8H170.742V38.15H172.742ZM171.742 30.8H168.292V32.8H171.742V30.8Z" fill="black"/>
</svg>
