<svg width="170" height="150" viewBox="0 0 170 150" fill="none" xmlns="http://www.w3.org/2000/svg">
<path d="M170 0H0V150H170V0Z" fill="#4A3A7E"/>
<path d="M142.141 10.5574H27.8056V139.55H142.141V10.5574Z" fill="#39183B"/>
<path d="M17.2845 10.1821H6.44141V21.0074H17.2845V10.1821Z" fill="#39183B"/>
<path d="M17.2845 27.1702H6.44141V37.9419H17.2845V27.1702Z" fill="#39183B"/>
<path d="M17.2845 44.1587H6.44141V54.984H17.2845V44.1587Z" fill="#39183B"/>
<path d="M17.2845 61.0933H6.44141V71.865H17.2845V61.0933Z" fill="#39183B"/>
<path d="M17.2845 78.0813H6.44141V88.853H17.2845V78.0813Z" fill="#39183B"/>
<path d="M17.2845 95.0696H6.44141V105.895H17.2845V95.0696Z" fill="#39183B"/>
<path d="M17.2845 112.004H6.44141V122.776H17.2845V112.004Z" fill="#39183B"/>
<path d="M17.2845 128.992H6.44141V139.818H17.2845V128.992Z" fill="#39183B"/>
<path d="M163.559 10.1821H152.715V21.0074H163.559V10.1821Z" fill="#39183B"/>
<path d="M163.559 27.1702H152.715V37.9419H163.559V27.1702Z" fill="#39183B"/>
<path d="M163.559 44.1587H152.715V54.984H163.559V44.1587Z" fill="#39183B"/>
<path d="M163.559 61.0933H152.715V71.865H163.559V61.0933Z" fill="#39183B"/>
<path d="M163.559 78.0813H152.715V88.853H163.559V78.0813Z" fill="#39183B"/>
<path d="M163.559 95.0696H152.715V105.895H163.559V95.0696Z" fill="#39183B"/>
<path d="M163.559 112.004H152.715V122.776H163.559V112.004Z" fill="#39183B"/>
<path d="M163.559 128.992H152.715V139.818H163.559V128.992Z" fill="#39183B"/>
<path d="M73.6469 73.8479V50.0537L94.2594 61.9508L114.926 73.8479L94.2594 85.745L73.6469 97.6421V73.8479Z" fill="#DD3934"/>
<path d="M86.7446 117.095C63.126 117.095 43.9091 97.9101 43.9091 74.3302C43.9091 50.7504 63.126 31.5649 86.7446 31.5649C110.363 31.5649 129.58 50.7504 129.58 74.3302C129.58 97.9101 110.363 117.095 86.7446 117.095ZM86.7446 37.2455C66.2394 37.2455 49.5454 53.9122 49.5454 74.3838C49.5454 94.8554 66.2394 111.522 86.7446 111.522C107.25 111.522 123.944 94.8554 123.944 74.3838C123.944 53.9122 107.25 37.2455 86.7446 37.2455Z" fill="#DD3934"/>
</svg>
