<svg width="185" height="131" viewBox="0 0 185 131" fill="none" xmlns="http://www.w3.org/2000/svg">
<path d="M185 131V98.0317L177 131H185Z" fill="#DE408E"/>
<path d="M107 83.5459L110 131H166.5L176 88.5411L107 83.5459Z" fill="#F47D23"/>
<path d="M77.9996 81.5479L73.4996 131H98.9996L94.9996 82.5469L77.9996 81.5479Z" fill="#6AB440"/>
<path d="M14.5003 77.0522L18.5003 131H61.0003L66.0003 80.5489L14.5003 77.0522Z" fill="#0A88CB"/>
<path fill-rule="evenodd" clip-rule="evenodd" d="M3.5 64.0523C36.5 51.5645 57.1998 53.6258 93 72.0446C35.5 39.5856 80.5 -8.36836 98.5 44.5723C126 -19.3556 192.5 3.6224 102 71.5566C102.4 71.2557 109.5 66.7696 113 64.5641H128.5C128.015 70.6541 129 74.055 137 76.5526C145.5 78.5506 151 71.5566 142.5 65.5632C140 64.0646 138.5 63.5651 135.5 63.0656C137.152 57.8793 141.89 56.2469 158.5 56.0723C168 56.0723 174.003 49.6581 178.5 36.5884L170.5 44.0839L170 35.0926C164.11 47.7383 158.5 51.0772 148.5 51.0772C138.5 51.0772 132.347 56.1033 129.5 62.0658H118.5C197 10.1167 134 -33.8412 98.5 36.5884C77.5 -6.86728 40 28.0984 67.5 57.0592C40.1941 49.3709 25.1783 47.3275 0 56.0602L8 57.5587L3.5 64.0523ZM133 65.5632C133.634 71.0023 138.5 75.5535 141.5 72.5564C144.5 69.5593 140.804 66.4699 133 65.5632Z" fill="#F33B97"/>
</svg>
