<svg width="140" height="113" viewBox="0 0 140 113" fill="none" xmlns="http://www.w3.org/2000/svg">
<ellipse rx="7.10265" ry="9.49317" transform="matrix(0.937588 -0.347748 0.346741 0.937961 55.3779 53.1728)" fill="#DD3934"/>
<path fill-rule="evenodd" clip-rule="evenodd" d="M71.0622 107.195C92.5009 99.8809 101.846 70.324 91.935 41.1782C82.0239 12.0325 56.6099 -5.66512 35.1711 1.64945C13.7323 8.96403 4.38726 38.521 14.2983 67.6667C24.2093 96.8124 49.6234 114.51 71.0622 107.195ZM69.7153 103.239C89.5464 96.4727 98.1907 69.1322 89.0229 42.1721C79.855 15.212 56.3467 -1.15856 36.5156 5.60749C16.6844 12.3735 8.04016 39.714 17.208 66.6741C26.3759 93.6343 49.8842 110.005 69.7153 103.239Z" fill="white"/>
<path fill-rule="evenodd" clip-rule="evenodd" d="M24.7617 4.68091C9.05142 16.6069 3.31883 42.582 12.1634 68.25C21.9679 96.7035 46.1937 114.647 67.8024 110.372C67.304 110.566 66.7999 110.75 66.2901 110.924C41.878 119.253 13.8505 101.78 3.68896 71.8975C-5.79194 44.0167 3.62941 15.1835 24.7617 4.68091Z" fill="white"/>
<path fill-rule="evenodd" clip-rule="evenodd" d="M69.521 91.3981C85.0339 85.6599 91.2971 63.886 83.5103 42.7647C75.7235 21.6435 56.8354 9.17312 41.3225 14.9113C25.8096 20.6495 19.5464 42.4234 27.3332 63.5446C35.12 84.6659 54.0081 97.1363 69.521 91.3981ZM66.6255 83.683C78.9814 79.1107 83.9631 61.7421 77.7523 44.8891C71.5416 28.036 56.4904 18.0805 44.1346 22.6527C31.7787 27.2251 26.7971 44.5937 33.0078 61.4467C39.2185 78.2998 54.2697 88.2553 66.6255 83.683Z" fill="#DD3934"/>
<path fill-rule="evenodd" clip-rule="evenodd" d="M64.0103 76.4147C73.5011 72.904 77.3549 59.6423 72.6181 46.7939C67.8812 33.9453 56.3474 26.3755 46.8566 29.8862C37.3658 33.3968 33.512 46.6585 38.2488 59.5071C42.9857 72.3555 54.5195 79.9253 64.0103 76.4147ZM61.3545 69.2254C67.9117 66.799 70.5751 57.635 67.3034 48.7572C64.0317 39.8794 56.0639 34.6494 49.5067 37.076C42.9495 39.5024 40.2861 48.6664 43.5578 57.5442C46.8295 66.422 54.7974 71.652 61.3545 69.2254Z" fill="#DD3934"/>
<path d="M130.483 5.60402L127.114 23.437L102.953 33.6174L106.099 18.2176L130.483 5.60402Z" fill="#DD3934"/>
<path d="M140 33.2594L126.225 22.6497L102.529 32.6343L115.719 41.1508L140 33.2594Z" fill="#DD3934"/>
<rect width="6.33004" height="83.9298" rx="3.16502" transform="matrix(-0.387196 -0.921997 0.921535 -0.388295 54.2331 57.3259)" fill="white"/>
</svg>
