<svg width="186" height="100" viewBox="0 0 186 100" fill="none" xmlns="http://www.w3.org/2000/svg">
<path d="M50.8053 59L60 50M60 50L50.8053 41M60 50H0" stroke="white" stroke-width="2"/>
<circle opacity="0.5" cx="136" cy="50" r="50" fill="#240930"/>
<circle cx="136" cy="50" r="37.0588" fill="#180730"/>
<circle cx="136" cy="50" r="32" fill="#290759"/>
<circle cx="135.823" cy="49.8238" r="28.8235" fill="#BC2722"/>
<circle cx="136" cy="50" r="27" fill="#DD3934"/>
<path d="M116.834 54.144C116.17 54.144 115.526 54.056 114.902 53.88C114.286 53.696 113.79 53.46 113.414 53.172L114.074 51.708C114.434 51.972 114.862 52.184 115.358 52.344C115.854 52.504 116.35 52.584 116.846 52.584C117.398 52.584 117.806 52.504 118.07 52.344C118.334 52.176 118.466 51.956 118.466 51.684C118.466 51.484 118.386 51.32 118.226 51.192C118.074 51.056 117.874 50.948 117.626 50.868C117.386 50.788 117.058 50.7 116.642 50.604C116.002 50.452 115.478 50.3 115.07 50.148C114.662 49.996 114.31 49.752 114.014 49.416C113.726 49.08 113.582 48.632 113.582 48.072C113.582 47.584 113.714 47.144 113.978 46.752C114.242 46.352 114.638 46.036 115.166 45.804C115.702 45.572 116.354 45.456 117.122 45.456C117.658 45.456 118.182 45.52 118.694 45.648C119.206 45.776 119.654 45.96 120.038 46.2L119.438 47.676C118.662 47.236 117.886 47.016 117.11 47.016C116.566 47.016 116.162 47.104 115.898 47.28C115.642 47.456 115.514 47.688 115.514 47.976C115.514 48.264 115.662 48.48 115.958 48.624C116.262 48.76 116.722 48.896 117.338 49.032C117.978 49.184 118.502 49.336 118.91 49.488C119.318 49.64 119.666 49.88 119.954 50.208C120.25 50.536 120.398 50.98 120.398 51.54C120.398 52.02 120.262 52.46 119.99 52.86C119.726 53.252 119.326 53.564 118.79 53.796C118.254 54.028 117.602 54.144 116.834 54.144ZM124.549 47.184H121.861V45.6H129.181V47.184H126.493V54H124.549V47.184ZM136.537 52.2H132.637L131.893 54H129.901L133.645 45.6H135.565L139.321 54H137.281L136.537 52.2ZM135.925 50.724L134.593 47.508L133.261 50.724H135.925ZM146.745 54L145.125 51.66H145.029H143.337V54H141.393V45.6H145.029C145.773 45.6 146.417 45.724 146.961 45.972C147.513 46.22 147.937 46.572 148.233 47.028C148.529 47.484 148.677 48.024 148.677 48.648C148.677 49.272 148.525 49.812 148.221 50.268C147.925 50.716 147.501 51.06 146.949 51.3L148.833 54H146.745ZM146.709 48.648C146.709 48.176 146.557 47.816 146.253 47.568C145.949 47.312 145.505 47.184 144.921 47.184H143.337V50.112H144.921C145.505 50.112 145.949 49.984 146.253 49.728C146.557 49.472 146.709 49.112 146.709 48.648ZM153.04 47.184H150.352V45.6H157.672V47.184H154.984V54H153.04V47.184Z" fill="white"/>
</svg>
