<svg width="60" height="60" viewBox="0 0 60 60" fill="none" xmlns="http://www.w3.org/2000/svg">
<path d="M30 60C46.5685 60 60 46.5685 60 30C60 13.4315 46.5685 0 30 0C13.4315 0 0 13.4315 0 30C0 46.5685 13.4315 60 30 60Z" fill="#2CA5E0"/>
<path d="M16.8391 29.2216L34.7089 21.801C36.4738 21.0282 42.4549 18.5539 42.4549 18.5539C42.4549 18.5539 45.2162 17.4722 44.9864 20.1C44.9098 21.1816 44.2959 24.9695 43.6828 29.0657L41.7654 41.2017C41.7654 41.2017 41.6122 42.9804 40.3082 43.2888C39.0046 43.5981 36.8576 42.2071 36.4731 41.8973C36.1662 41.6654 30.7206 38.1871 28.7271 36.4868C28.1903 36.0231 27.5765 35.0953 28.8037 34.0135C31.565 31.4621 34.8621 28.2934 36.8574 26.2838C37.7776 25.3563 38.6982 23.192 34.8633 25.82L24.0483 33.1622C24.0483 33.1622 22.8211 33.935 20.5209 33.2394C18.22 32.5435 15.5355 31.6163 15.5355 31.6163C15.5355 31.6163 13.6947 30.4567 16.8391 29.2204" fill="white"/>
</svg>
