<svg width="370" height="630" viewBox="0 0 370 630" fill="none" xmlns="http://www.w3.org/2000/svg">
<g opacity="0.1">
<circle r="3" transform="matrix(-1 0 0 1 185 341)" fill="black"/>
<circle r="3" transform="matrix(-1 0 0 1 185 523)" fill="black"/>
<circle r="3" transform="matrix(-1 0 0 1 55 341)" fill="black"/>
<circle r="3" transform="matrix(-1 0 0 1 55 55)" fill="black"/>
<circle r="3" transform="matrix(-1 0 0 1 55 523)" fill="black"/>
<circle r="3" transform="matrix(-1 0 0 1 55 237)" fill="black"/>
<circle r="3" transform="matrix(-1 0 0 1 3 341)" fill="black"/>
<circle r="3" transform="matrix(-1 0 0 1 3 55)" fill="black"/>
<circle r="3" transform="matrix(-1 0 0 1 3 523)" fill="black"/>
<circle r="3" transform="matrix(-1 0 0 1 3 237)" fill="black"/>
<circle r="3" transform="matrix(-1 0 0 1 185 289)" fill="black"/>
<circle r="3" transform="matrix(-1 0 0 1 185 471)" fill="black"/>
<circle r="3" transform="matrix(-1 0 0 1 55 289)" fill="black"/>
<circle r="3" transform="matrix(-1 0 0 1 55 3)" fill="black"/>
<circle r="3" transform="matrix(-1 0 0 1 55 471)" fill="black"/>
<circle r="3" transform="matrix(-1 0 0 1 55 185)" fill="black"/>
<circle r="3" transform="matrix(-1 0 0 1 3 289)" fill="black"/>
<circle r="3" transform="matrix(-1 0 0 1 3 3)" fill="black"/>
<circle r="3" transform="matrix(-1 0 0 1 3 471)" fill="black"/>
<circle r="3" transform="matrix(-1 0 0 1 3 185)" fill="black"/>
<circle r="3" transform="matrix(-1 0 0 1 185 393)" fill="black"/>
<circle r="3" transform="matrix(-1 0 0 1 185 575)" fill="black"/>
<circle r="3" transform="matrix(-1 0 0 1 55 393)" fill="black"/>
<circle r="3" transform="matrix(-1 0 0 1 55 107)" fill="black"/>
<circle r="3" transform="matrix(-1 0 0 1 55 575)" fill="black"/>
<circle r="3" transform="matrix(-1 0 0 1 3 393)" fill="black"/>
<circle r="3" transform="matrix(-1 0 0 1 3 107)" fill="black"/>
<circle r="3" transform="matrix(-1 0 0 1 3 575)" fill="black"/>
<circle r="3" transform="matrix(-1 0 0 1 185 445)" fill="black"/>
<circle r="3" transform="matrix(-1 0 0 1 185 627)" fill="black"/>
<circle r="3" transform="matrix(-1 0 0 1 55 445)" fill="black"/>
<circle r="3" transform="matrix(-1 0 0 1 55 159)" fill="black"/>
<circle r="3" transform="matrix(-1 0 0 1 55 627)" fill="black"/>
<circle r="3" transform="matrix(-1 0 0 1 3 445)" fill="black"/>
<circle r="3" transform="matrix(-1 0 0 1 3 159)" fill="black"/>
<circle r="3" transform="matrix(-1 0 0 1 3 627)" fill="black"/>
<circle r="3" transform="matrix(-1 0 0 1 211 341)" fill="black"/>
<circle r="3" transform="matrix(-1 0 0 1 211 523)" fill="black"/>
<circle r="3" transform="matrix(-1 0 0 1 81 341)" fill="black"/>
<circle r="3" transform="matrix(-1 0 0 1 81 55)" fill="black"/>
<circle r="3" transform="matrix(-1 0 0 1 81 523)" fill="black"/>
<circle r="3" transform="matrix(-1 0 0 1 81 237)" fill="black"/>
<circle r="3" transform="matrix(-1 0 0 1 29 341)" fill="black"/>
<circle r="3" transform="matrix(-1 0 0 1 29 55)" fill="black"/>
<circle r="3" transform="matrix(-1 0 0 1 29 523)" fill="black"/>
<circle r="3" transform="matrix(-1 0 0 1 29 237)" fill="black"/>
<circle r="3" transform="matrix(-1 0 0 1 211 289)" fill="black"/>
<circle r="3" transform="matrix(-1 0 0 1 211 471)" fill="black"/>
<circle r="3" transform="matrix(-1 0 0 1 81 289)" fill="black"/>
<circle r="3" transform="matrix(-1 0 0 1 81 3)" fill="black"/>
<circle r="3" transform="matrix(-1 0 0 1 81 471)" fill="black"/>
<circle r="3" transform="matrix(-1 0 0 1 81 185)" fill="black"/>
<circle r="3" transform="matrix(-1 0 0 1 29 289)" fill="black"/>
<circle r="3" transform="matrix(-1 0 0 1 29 3)" fill="black"/>
<circle r="3" transform="matrix(-1 0 0 1 29 471)" fill="black"/>
<circle r="3" transform="matrix(-1 0 0 1 29 185)" fill="black"/>
<circle r="3" transform="matrix(-1 0 0 1 211 393)" fill="black"/>
<circle r="3" transform="matrix(-1 0 0 1 211 575)" fill="black"/>
<circle r="3" transform="matrix(-1 0 0 1 81 393)" fill="black"/>
<circle r="3" transform="matrix(-1 0 0 1 81 107)" fill="black"/>
<circle r="3" transform="matrix(-1 0 0 1 81 575)" fill="black"/>
<circle r="3" transform="matrix(-1 0 0 1 29 393)" fill="black"/>
<circle r="3" transform="matrix(-1 0 0 1 29 107)" fill="black"/>
<circle r="3" transform="matrix(-1 0 0 1 29 575)" fill="black"/>
<circle r="3" transform="matrix(-1 0 0 1 211 445)" fill="black"/>
<circle r="3" transform="matrix(-1 0 0 1 211 627)" fill="black"/>
<circle r="3" transform="matrix(-1 0 0 1 81 445)" fill="black"/>
<circle r="3" transform="matrix(-1 0 0 1 81 159)" fill="black"/>
<circle r="3" transform="matrix(-1 0 0 1 81 627)" fill="black"/>
<circle r="3" transform="matrix(-1 0 0 1 29 445)" fill="black"/>
<circle r="3" transform="matrix(-1 0 0 1 29 159)" fill="black"/>
<circle r="3" transform="matrix(-1 0 0 1 29 627)" fill="black"/>
<circle r="3" transform="matrix(-1 0 0 1 237 341)" fill="black"/>
<circle r="3" transform="matrix(-1 0 0 1 237 367)" fill="black"/>
<circle r="3" transform="matrix(-1 0 0 1 237 393)" fill="black"/>
<circle r="3" transform="matrix(-1 0 0 1 237 419)" fill="black"/>
<circle r="3" transform="matrix(-1 0 0 1 107 341)" fill="black"/>
<circle r="3" transform="matrix(-1 0 0 1 107 523)" fill="black"/>
<circle r="3" transform="matrix(-1 0 0 1 237 289)" fill="black"/>
<circle r="3" transform="matrix(-1 0 0 1 107 289)" fill="black"/>
<circle r="3" transform="matrix(-1 0 0 1 107 471)" fill="black"/>
<circle r="3" transform="matrix(-1 0 0 1 107 393)" fill="black"/>
<circle r="3" transform="matrix(-1 0 0 1 107 575)" fill="black"/>
<circle r="3" transform="matrix(-1 0 0 1 107 445)" fill="black"/>
<circle r="3" transform="matrix(-1 0 0 1 107 627)" fill="black"/>
<circle r="3" transform="matrix(-1 0 0 1 263 341)" fill="black"/>
<circle r="3" transform="matrix(-1 0 0 1 263 367)" fill="black"/>
<circle r="3" transform="matrix(-1 0 0 1 263 393)" fill="black"/>
<circle r="3" transform="matrix(-1 0 0 1 263 419)" fill="black"/>
<circle r="3" transform="matrix(-1 0 0 1 133 341)" fill="black"/>
<circle r="3" transform="matrix(-1 0 0 1 133 523)" fill="black"/>
<circle r="3" transform="matrix(-1 0 0 1 263 289)" fill="black"/>
<circle r="3" transform="matrix(-1 0 0 1 133 289)" fill="black"/>
<circle r="3" transform="matrix(-1 0 0 1 133 471)" fill="black"/>
<circle r="3" transform="matrix(-1 0 0 1 133 393)" fill="black"/>
<circle r="3" transform="matrix(-1 0 0 1 133 575)" fill="black"/>
<circle r="3" transform="matrix(-1 0 0 1 133 445)" fill="black"/>
<circle r="3" transform="matrix(-1 0 0 1 133 627)" fill="black"/>
<circle r="3" transform="matrix(-1 0 0 1 289 341)" fill="black"/>
<circle r="3" transform="matrix(-1 0 0 1 289 367)" fill="black"/>
<circle r="3" transform="matrix(-1 0 0 1 289 393)" fill="black"/>
<circle r="3" transform="matrix(-1 0 0 1 289 419)" fill="black"/>
<circle r="3" transform="matrix(-1 0 0 1 159 341)" fill="black"/>
<circle r="3" transform="matrix(-1 0 0 1 159 523)" fill="black"/>
<circle r="3" transform="matrix(-1 0 0 1 289 289)" fill="black"/>
<circle r="3" transform="matrix(-1 0 0 1 159 289)" fill="black"/>
<circle r="3" transform="matrix(-1 0 0 1 159 471)" fill="black"/>
<circle r="3" transform="matrix(-1 0 0 1 159 393)" fill="black"/>
<circle r="3" transform="matrix(-1 0 0 1 159 575)" fill="black"/>
<circle r="3" transform="matrix(-1 0 0 1 159 445)" fill="black"/>
<circle r="3" transform="matrix(-1 0 0 1 159 627)" fill="black"/>
<circle r="3" transform="matrix(-1 0 0 1 341 341)" fill="black"/>
<circle r="3" transform="matrix(-1 0 0 1 341 367)" fill="black"/>
<circle r="3" transform="matrix(-1 0 0 1 341 393)" fill="black"/>
<circle r="3" transform="matrix(-1 0 0 1 341 419)" fill="black"/>
<circle r="3" transform="matrix(-1 0 0 1 341 289)" fill="black"/>
<circle r="3" transform="matrix(-1 0 0 1 315 341)" fill="black"/>
<circle r="3" transform="matrix(-1 0 0 1 315 367)" fill="black"/>
<circle r="3" transform="matrix(-1 0 0 1 315 393)" fill="black"/>
<circle r="3" transform="matrix(-1 0 0 1 315 419)" fill="black"/>
<circle r="3" transform="matrix(-1 0 0 1 315 289)" fill="black"/>
<circle r="3" transform="matrix(-1 0 0 1 367 341)" fill="black"/>
<circle r="3" transform="matrix(-1 0 0 1 367 367)" fill="black"/>
<circle r="3" transform="matrix(-1 0 0 1 367 393)" fill="black"/>
<circle r="3" transform="matrix(-1 0 0 1 367 419)" fill="black"/>
<circle r="3" transform="matrix(-1 0 0 1 367 289)" fill="black"/>
<circle r="3" transform="matrix(-1 0 0 1 185 367)" fill="black"/>
<circle r="3" transform="matrix(-1 0 0 1 185 549)" fill="black"/>
<circle r="3" transform="matrix(-1 0 0 1 55 367)" fill="black"/>
<circle r="3" transform="matrix(-1 0 0 1 55 81)" fill="black"/>
<circle r="3" transform="matrix(-1 0 0 1 55 549)" fill="black"/>
<circle r="3" transform="matrix(-1 0 0 1 55 263)" fill="black"/>
<circle r="3" transform="matrix(-1 0 0 1 3 367)" fill="black"/>
<circle r="3" transform="matrix(-1 0 0 1 3 81)" fill="black"/>
<circle r="3" transform="matrix(-1 0 0 1 3 549)" fill="black"/>
<circle r="3" transform="matrix(-1 0 0 1 3 263)" fill="black"/>
<circle r="3" transform="matrix(-1 0 0 1 185 315)" fill="black"/>
<circle r="3" transform="matrix(-1 0 0 1 185 497)" fill="black"/>
<circle r="3" transform="matrix(-1 0 0 1 55 315)" fill="black"/>
<circle r="3" transform="matrix(-1 0 0 1 55 29)" fill="black"/>
<circle r="3" transform="matrix(-1 0 0 1 55 497)" fill="black"/>
<circle r="3" transform="matrix(-1 0 0 1 55 211)" fill="black"/>
<circle r="3" transform="matrix(-1 0 0 1 3 315)" fill="black"/>
<circle r="3" transform="matrix(-1 0 0 1 3 29)" fill="black"/>
<circle r="3" transform="matrix(-1 0 0 1 3 497)" fill="black"/>
<circle r="3" transform="matrix(-1 0 0 1 3 211)" fill="black"/>
<circle r="3" transform="matrix(-1 0 0 1 185 419)" fill="black"/>
<circle r="3" transform="matrix(-1 0 0 1 185 601)" fill="black"/>
<circle r="3" transform="matrix(-1 0 0 1 55 419)" fill="black"/>
<circle r="3" transform="matrix(-1 0 0 1 55 133)" fill="black"/>
<circle r="3" transform="matrix(-1 0 0 1 55 601)" fill="black"/>
<circle r="3" transform="matrix(-1 0 0 1 3 419)" fill="black"/>
<circle r="3" transform="matrix(-1 0 0 1 3 133)" fill="black"/>
<circle r="3" transform="matrix(-1 0 0 1 3 601)" fill="black"/>
<circle r="3" transform="matrix(-1 0 0 1 211 367)" fill="black"/>
<circle r="3" transform="matrix(-1 0 0 1 211 549)" fill="black"/>
<circle r="3" transform="matrix(-1 0 0 1 81 367)" fill="black"/>
<circle r="3" transform="matrix(-1 0 0 1 81 81)" fill="black"/>
<circle r="3" transform="matrix(-1 0 0 1 81 549)" fill="black"/>
<circle r="3" transform="matrix(-1 0 0 1 81 263)" fill="black"/>
<circle r="3" transform="matrix(-1 0 0 1 29 367)" fill="black"/>
<circle r="3" transform="matrix(-1 0 0 1 29 81)" fill="black"/>
<circle r="3" transform="matrix(-1 0 0 1 29 549)" fill="black"/>
<circle r="3" transform="matrix(-1 0 0 1 29 263)" fill="black"/>
<circle r="3" transform="matrix(-1 0 0 1 211 315)" fill="black"/>
<circle r="3" transform="matrix(-1 0 0 1 211 497)" fill="black"/>
<circle r="3" transform="matrix(-1 0 0 1 81 315)" fill="black"/>
<circle r="3" transform="matrix(-1 0 0 1 81 29)" fill="black"/>
<circle r="3" transform="matrix(-1 0 0 1 81 497)" fill="black"/>
<circle r="3" transform="matrix(-1 0 0 1 81 211)" fill="black"/>
<circle r="3" transform="matrix(-1 0 0 1 29 315)" fill="black"/>
<circle r="3" transform="matrix(-1 0 0 1 29 29)" fill="black"/>
<circle r="3" transform="matrix(-1 0 0 1 29 497)" fill="black"/>
<circle r="3" transform="matrix(-1 0 0 1 29 211)" fill="black"/>
<circle r="3" transform="matrix(-1 0 0 1 211 419)" fill="black"/>
<circle r="3" transform="matrix(-1 0 0 1 211 601)" fill="black"/>
<circle r="3" transform="matrix(-1 0 0 1 81 419)" fill="black"/>
<circle r="3" transform="matrix(-1 0 0 1 81 133)" fill="black"/>
<circle r="3" transform="matrix(-1 0 0 1 81 601)" fill="black"/>
<circle r="3" transform="matrix(-1 0 0 1 29 419)" fill="black"/>
<circle r="3" transform="matrix(-1 0 0 1 29 133)" fill="black"/>
<circle r="3" transform="matrix(-1 0 0 1 29 601)" fill="black"/>
<circle r="3" transform="matrix(-1 0 0 1 107 367)" fill="black"/>
<circle r="3" transform="matrix(-1 0 0 1 107 549)" fill="black"/>
<circle r="3" transform="matrix(-1 0 0 1 237 315)" fill="black"/>
<circle r="3" transform="matrix(-1 0 0 1 107 315)" fill="black"/>
<circle r="3" transform="matrix(-1 0 0 1 107 497)" fill="black"/>
<circle r="3" transform="matrix(-1 0 0 1 107 419)" fill="black"/>
<circle r="3" transform="matrix(-1 0 0 1 107 601)" fill="black"/>
<circle r="3" transform="matrix(-1 0 0 1 133 367)" fill="black"/>
<circle r="3" transform="matrix(-1 0 0 1 133 549)" fill="black"/>
<circle r="3" transform="matrix(-1 0 0 1 263 315)" fill="black"/>
<circle r="3" transform="matrix(-1 0 0 1 133 315)" fill="black"/>
<circle r="3" transform="matrix(-1 0 0 1 133 497)" fill="black"/>
<circle r="3" transform="matrix(-1 0 0 1 133 419)" fill="black"/>
<circle r="3" transform="matrix(-1 0 0 1 133 601)" fill="black"/>
<circle r="3" transform="matrix(-1 0 0 1 159 367)" fill="black"/>
<circle r="3" transform="matrix(-1 0 0 1 159 549)" fill="black"/>
<circle r="3" transform="matrix(-1 0 0 1 289 315)" fill="black"/>
<circle r="3" transform="matrix(-1 0 0 1 159 315)" fill="black"/>
<circle r="3" transform="matrix(-1 0 0 1 159 497)" fill="black"/>
<circle r="3" transform="matrix(-1 0 0 1 159 419)" fill="black"/>
<circle r="3" transform="matrix(-1 0 0 1 159 601)" fill="black"/>
<circle r="3" transform="matrix(-1 0 0 1 341 315)" fill="black"/>
<circle r="3" transform="matrix(-1 0 0 1 315 315)" fill="black"/>
<circle r="3" transform="matrix(-1 0 0 1 367 315)" fill="black"/>
</g>
</svg>
