<svg width="548" height="1095" viewBox="0 0 548 1095" fill="none" xmlns="http://www.w3.org/2000/svg">
<g opacity="0.2">
<path d="M0 288.632C142.994 288.632 258.751 404.623 258.751 547.383C258.751 690.142 142.994 806.368 0 806.368" stroke="black" stroke-miterlimit="10"/>
<path d="M0 264.682C156.143 264.682 282.936 391.24 282.936 547.618C282.936 703.995 156.143 830.318 0 830.318" stroke="black" stroke-miterlimit="10"/>
<path d="M0 240.732C169.527 240.732 306.885 378.091 306.885 547.617C306.885 717.144 169.527 854.268 0 854.268" stroke="black" stroke-miterlimit="10"/>
<path d="M0 216.782C182.675 216.782 330.835 364.942 330.835 547.617C330.835 730.293 182.675 878.218 0 878.218" stroke="black" stroke-miterlimit="10"/>
<path d="M0 192.833C195.824 192.833 354.785 351.558 354.785 547.617C354.785 743.676 195.824 902.167 0 902.167" stroke="black" stroke-miterlimit="10"/>
<path d="M0 168.883C209.208 168.883 378.734 338.409 378.734 547.617C378.734 756.825 209.208 926.117 0 926.117" stroke="black" stroke-miterlimit="10"/>
<path d="M0 144.933C222.357 144.933 402.684 325.261 402.684 547.618C402.684 769.974 222.357 950.302 0 950.302" stroke="black" stroke-miterlimit="10"/>
<path d="M0 120.749C235.741 120.749 426.634 311.877 426.634 547.383C426.634 782.888 235.741 974.251 0 974.251" stroke="black" stroke-miterlimit="10"/>
<path d="M0 96.7991C248.889 96.7991 450.584 298.493 450.584 547.383C450.584 796.272 248.889 998.201 0 998.201" stroke="black" stroke-miterlimit="10"/>
<path d="M0 72.8491C262.038 72.8491 474.533 285.344 474.533 547.383C474.533 809.421 262.038 1022.15 0 1022.15" stroke="black" stroke-miterlimit="10"/>
<path d="M0 48.4297C275.657 48.4297 499.188 271.961 499.188 547.617C499.188 823.274 275.657 1046.57 0 1046.57" stroke="black" stroke-miterlimit="10"/>
<path d="M0 24.9496C288.571 24.9496 522.433 258.812 522.433 547.382C522.433 835.953 288.571 1070.05 0 1070.05" stroke="black" stroke-miterlimit="10"/>
<path d="M0 1C301.72 1 546.617 245.663 546.617 547.617C546.617 849.572 301.72 1094 0 1094" stroke="black" stroke-miterlimit="10"/>
</g>
</svg>
