<svg width="60" height="60" viewBox="0 0 60 60" fill="none" xmlns="http://www.w3.org/2000/svg">
<path d="M30 60C46.5685 60 60 46.5685 60 30C60 13.4315 46.5685 0 30 0C13.4315 0 0 13.4315 0 30C0 46.5685 13.4315 60 30 60Z" fill="#00C232"/>
<path fill-rule="evenodd" clip-rule="evenodd" d="M23.1335 26.6439C23.0818 25.957 23.2166 25.2689 23.5238 24.6519C23.6174 24.4061 23.7475 24.1757 23.9097 23.9684C24.1994 23.578 24.5863 23.2699 25.0323 23.0745C25.0323 23.0745 26.3577 22.9449 26.4724 23.1224C27.0867 24.1847 27.6005 25.3016 28.0074 26.4587C28.2103 27.2154 27.1451 28.0791 27.1451 28.0791C27.1451 28.0791 26.4702 28.4221 27.1451 29.2706C27.6479 29.9041 28.5036 31.008 29.0175 31.4156C29.5603 31.8581 30.1377 32.2567 30.7443 32.6075C31.9992 33.3008 32.2329 33.2269 32.2329 33.2269C32.2329 33.2269 32.4645 33.3212 33.0952 32.4645C33.4326 32.0097 33.8009 31.4758 34.1516 31.3681C34.5574 31.2444 37.8346 33.1195 37.7045 32.9885C37.9338 33.219 37.753 33.9579 37.753 33.9579C37.753 33.9579 37.8236 34.7845 36.5753 35.7377C35.7527 36.3663 34.392 36.5159 34.392 36.5159C33.5352 36.4547 32.6932 36.262 31.8955 35.9447C30.5656 35.4452 29.1608 35.0249 27.3369 33.3711C26.0699 32.2248 24.9692 30.9085 24.0664 29.46C23.107 27.8121 23.1335 26.6439 23.1335 26.6439ZM30.2878 44.3327C27.7449 44.3363 25.2447 43.6819 23.032 42.4334L15 45L17.6398 37.1854C15.9739 34.4058 15.2779 31.1552 15.6604 27.9403C16.0428 24.7253 17.4822 21.7268 19.7541 19.4122C22.026 17.0976 25.0028 15.5969 28.2203 15.1441C31.4379 14.6914 34.7154 15.312 37.5418 16.9092C40.3683 18.5065 42.5849 20.9905 43.846 23.9742C45.1072 26.9578 45.3421 30.2734 44.514 33.4039C43.6859 36.5344 41.8414 39.304 39.2681 41.2809C36.6948 43.2578 33.5372 44.3308 30.2878 44.3327ZM30.2635 17.4978C28.0036 17.4894 25.7851 18.1021 23.852 19.2684C21.9189 20.4347 20.346 22.1095 19.3064 24.1086C18.2667 26.1078 17.8005 28.3538 17.959 30.5998C18.1175 32.8458 18.8945 35.0048 20.2047 36.8394L19.0337 40.3769L19.0381 40.3802L18.6962 41.3779L20.6833 40.7902C20.6801 40.7864 20.6764 40.7831 20.6723 40.7805L23.3981 39.9258C24.9941 40.9999 26.8208 41.686 28.7313 41.9288C30.6419 42.1716 32.5829 41.9644 34.3985 41.3239C36.214 40.6834 37.8534 39.6274 39.1847 38.2408C40.5161 36.8542 41.5024 35.1757 42.0642 33.3403C42.6261 31.5049 42.7478 29.5638 42.4197 27.6729C42.0915 25.7821 41.3226 23.9944 40.1749 22.4535C39.0271 20.9126 37.5324 19.6615 35.811 18.8008C34.0896 17.9401 32.1895 17.4938 30.2635 17.4978V17.4978Z" fill="white"/>
</svg>
